<svg xmlns="http://www.w3.org/2000/svg" viewBox="0 0 176.94 34.02"><defs><style>.cls-1,.cls-2{fill:#95c11f;}.cls-1{fill-rule:evenodd;}</style></defs><title>Asset 1</title><g id="Layer_2" data-name="Layer 2"><g id="Laag_1" data-name="Laag 1"><path class="cls-1" d="M34,17A17,17,0,1,1,17,0,17,17,0,0,1,34,17Zm-3.41.49-.08.11,0,.09,0,.08,0,.09,0,.09v0l0,.08,0,0,0,0,0,0,0,0,0,0,0,0,0,0-.06,0-.06,0-.09,0h-.39l-.07,0-.05,0-.07,0-.07,0-.1.07,0,0,0,.05-.05,0,0,0,0,0,0,0,0,0,0,0,0,0-.07.08-.08.08,0,0,0,.05,0,0,0,0,0,0,0,0,0,0v0l0,0,0,.05,0,0v0l0,0,0,0,0,0-.06.06,0,0-.06,0-.07,0,0,0h0l0,0-.05,0L28,20l0,0,0,0-.06.06-.05.05,0,0,0,0,0,0,0,0,0,0,0,0,0,0,0,0,0,0-.05.06,0,0,0,.05-.05.06,0,0,0,0h0l0,0,0,0H27.1l0,0h0v-.25H27v0h0v0l0,0v.11h0v.26h0v0h0l0,0h.05v0h0l0,0,0,0-.06.08,0,0v0l0,0,0,.05h0l0,0h0v0l0,0h0v0h0v0h0v0h-.13l0,0-.12,0-.13,0,0,0h0l-.06,0,0,0h0v-.07h0v0h-.23l0,0,0,0-.06,0h0v0l0,0v0h0v0h.12l0,0h0l0,0h0v0h-.28v0l0-.08h-.11v0h0v0h0v0h0v0l0,0h0l.06,0h0v0h0v0h0v0h0l0,0v0l0,0H26v0h0v0l0,0,0,0v0h-.13v0h0l0,0h0l-.1.09,0,0h-.08v0h0l0,0h-.09l-.06,0h-.53l-.08,0-.07,0h-.33l0,.05,0,0h0v0h0v0l0,0,0,0h0l0,0h0l0,.07v.05h.1v.05l0,0h0l0,0,0,0h0v0l0,0,0,.07h-.1l0,0v.09l0,.06,0,0v0l0,0,0,0v.05l0,0H24l-.06,0h-.06l0,0h0v0h0v0h0l.05,0,0,0v0h0l0,0,0,0h-.16l-.11.06,0,0h-.68l0,0h0l-.08,0-.1.06,0,0h0v0h0v.11l0,0,0,0h0l-.09.09,0,0-.06.08-.05.07v0h0l0,0h.06l0,0h0v0l-.05.07,0,0,0,0-.07.08,0,0,0,0,0,0,0,0v.35l-.06,0-.08,0v0l-.05,0L21.65,25h0l-.09,0v0h-.06v-.13h-.05l0,0-.07,0h0l-.05,0-.05,0h0v0h0l0-.07-.07,0h0v0h0l-.07,0,0,0,0,0h-.06l0,0h0l0-.06h0l-.09-.08-.05-.05h0v0l-.05,0,0-.05h0v0l-.05-.05H20.3l0,0h-.05l-.06,0v-.07h0l0,0,0,0v0h0v0l0-.06v0l0-.06,0-.06v0l0,0h0l0,0v0h0v0h0v0l0-.05v0h0v0h-.22v0h0l0,0h0l0,0h0v-.05h0l0,0,0,0h0l-.06-.08h0L20,22.69h0v-.05h0v0h0l0,0v0l0-.07,0,0,0,0,0-.05h0l-.05-.08-.05-.08-.05-.09v0l0-.07,0,0h0l-.05-.07-.07-.11,0,0h0l0,0,0-.06,0,0v0h0l0,0h0l0,0h0l0,0h-.08l-.07,0h-.26v0h0l0,0,0,0,0,0h0l0,0v.07h0l0,0h0l-.05,0v0h0l-.05,0h-.09l0,0v0h0v0h0v-.08H18l-.08,0h0l-.05,0,0,0h-.73v0H17l-.06,0h-.08l0,0h0l0,0,0,0,0,0,0,0,0,0h-.05l0,0h0v0h0l0,0h0l0,0,0,0,0,0h0v0h0v0h0v0h-.36l0,0h0v0h0v0h0v0h0v0h-.05l0,0h0v0h0l0,0h0v0h0l0,0,0,0,0,0h0v0h-.08l0,0h-.13l0,0,0,0v0H15l0,0H14.9v-.06h-.06l0,0,0,0,0,0h0l0,0h0l0,0-.05,0h0l0,0h0l0,0v0h0l0,0h-.13l0,0H14l0,0h0l0,0h0l0,0h0l0,0,0,0,0,0h-.07l-.06,0h-.23v0h0v0h-.07l0,0h0l0,0h0l-.07-.06h0l0,0,0,0h0v0h0v0h0l0,0v.05h0l0,0,0,0,0,0h0l0,0h0l0,0h-.07l0,0h-.2l0,0h0v0h0l0,0,0,0h0v0h0v0h0v-.06h0v0h0v-.05h0v0h0v0h0l0,0h0l0,0h0v0h0v0h0l-.06-.07,0,0,0,0h0v0h0v0h0v0h0v0l0,0h0v0h0v-.1h0v0h0l0,0h0v0h0v0h0l0,0h0v0H11.7v0h0v0h0v0h0v-.05h0l0,0v0l0,0h0v0h0v0l0,0v0h0l0-.06h0v0h0v0h0v0h0l0-.05v0h0v0l0,0h0v0h0l0-.05v0h.07v0l0,0h0l0-.08v0l0,0,0-.06h0l0,0H10v0H9.94v0h0v0h0v0h0v0h0v0H9.76v0l0,0H9.64l0,0,0,0h0l0,0,0,0h0l-.06,0h0v-.07h0v0H9.23l0,0h0v.06l0,0v.06l0,.05v.06h0v0l0,0v0l0,0,0,.05v0h.08v0h0v.09l0,0,0,0,0,.06L9,19,8.89,19l0,0,0,0,0,0,0,0,0,0-.05,0-.05,0-.09.06H8.47l0,0,0,0-.06,0,0,0h0l0,0-.08.08h0l-.05,0h0v.06l0,.07h0v0l0,0-.05,0,0,0H7.83l-.09,0h0l-.06,0h0l0,0-.07-.05v0h0l0,0-.06-.05-.09-.05,0,0,0,0,0,0-.05,0-.06,0,0,0H6.92l0,0-.06,0h0l0,0,0,0,0,0,0,0,0,0-.06,0H6.29l-.06,0-.06,0H6.11l0,0h0l0,0h0v0l0,0,0,0H5.8l0,0h0l0,0,0,0h0l0,0-.05,0,0,0,0,0,0,0,0,.07,0,0v0l0,.07v0l0,0v0l0,0,0,0,0,0,0,0,0,0-.07,0L5,20l-.07,0h0l0,0,0,0,0,0h0v0H4.67l-.06-.06,0,0,0,0,0,0,0,0h0v0l0,0h0v0h0v0h0v0h.08v0h0v0h0l0,0h0v0H5v0H5l0-.05H4.81v0h0v0h0v0h0v0h0v0h0l0,0v0h0l0,0-.06,0-.06,0-.09,0,0-.07-.08,0h0l-.06,0,0,0h0l0,0h0l0,0v0l0,0v0l0,0v0l-.06-.07,0-.05v-.05h0V18.5h0v-.06l.07-.06v0l0,0L4,18.18H4l-.08-.11-.05-.13,0-.22,0-.07,0-.06,0,0v0l.15-.16,0,0,0-.08h0L4.09,17l0-.05-.26-.11-.1.06,0-.05H3.6l0-.06h0v0l0,0h0v0l0,0,0,0v0l0,0,.05,0v0h0l0-.09,0,0,0,0h0v0h0v0h0v0h0v0h0v0h0l0-.11V16h.06l0,0h.13v0l0,0v0l0,0h0v0h.08l0,0h.07l0,0,.06,0,0,0H4l0,0,.07,0,.1.05h0v0h0l0,0h.08l0,0v0l0,0,0,0,0,0v-.11h0l.06,0,0,0,0,0v0h.07l0,0h.07v0h0l0,0,0,0h0l0,0H5v0l0,0H5v0h.07l0,0v0l0,0,0,0h.14v0h.09l0,0h.14l.06,0,.08,0,0,0h0l0,0,0,0h0v0h0v0l-.07-.08.1-.1.06-.07,0,0,0-.06.06,0,0-.07,0,0,0-.07.06,0L6,14l0,0,0,0H6l0,0,.06,0h0l0,0h0l.12-.08.09-.05,0,0,0,0,.06,0,.09-.05h0l0,0h0l0,0,0,0v0l.07,0,0,0,.08,0,.05,0H7l0,0,.07,0,0-.05h0l0,.05v0l0,.05.08.13.1.15,0,.11,0,.07v0l0,0,0,0,0,.05,0,.06,0,0,0,0h0v0h0v0h0v0h0l0,0H8v0l0,.06v.15h.09l0,0,0,0h.21l0,0h.23v0h0l.05,0h0v0h.42l0,0h.31v0h.4v0l0,0,0,0h.18l0,0h0l0,0,0,0v0h.14v0h-.13l0,0v0l0,0v0l0,0,0,0h0v0h0v-.08H11l0,0h0v0l0,0h0v0h0v0h0v0h0v0h0v0h0v0h0l0,0h.05l0,0,0,0h0v0h.11v0h.4l0,0h0v0h.08v0h0v0h0v0h0v0h0l.05,0h0v.05h.05l0,0v0l0,0v0h0v.05h.1v0h0v.07h0v0h.07v0h.05v0h0l0,0,0,0h0v0l0,0h.27l0,0h.24v0h.1l0,0h0l0,0h.06l0,0h0l0,0h0l0,0h0l0,0h0v0h0l0,0h.15l0,0h0l0,0h0l.07,0h0v0H14l0,0h.28l0,0h0v0h0v-.06l0-.08,0,0v0h0l0-.06h0v0h0v-.22h0V11.7h0l0-.07h0l0-.05h0l0,0,0,0h0l0,0,0,0,0,0h0l0-.05,0,0,0,0,0,0h0l0-.07,0,0,0,0h0l-.05-.13,0-.08V10.8h-.33v-.3h0v-.16h0v0l0,0h0l0,0h0l0,0h.24v0h0l0,0h0l0,0h0l0,0h0l.05,0h0l0,0,0,0h0l0,0h.18l0,0h0l0,0h0v0h0l0,0h.1l.06,0h.6V9.82h.73l0,0h.23v0h0l0,0h.13v0h0l.05,0,0,.12v0h.08l0,0h.32l.14,0h.44l0,0h.18l.07,0h0l0,0h.06l0,0h0l0,0,.06,0h0v0h0v0l.06,0,0,0,0-.05v0l.08-.05h0l.09,0h0l0,0h0l0,0h.13l.16,0h.09l.06,0h.42V9l0,0v0h0l.06,0,0,0h.18l0,0,0,.06,0,0,0,0h.08v0l0,0,0,0-.06.12,0,0,0,.11,0,.09v0l0,0,.06.06v0l0,0,0,0h.05l0,.06.05.08v0l0,0v0h0l0,0h0v0h0v.05h0l0,0h0l0,0,0,.06v0h0l0,0,0,.07,0,.06h0l0,.06,0,0v0l.06.09h0l0,0,0,0,.12.17.07.1,0,0,.06.07.08.1.12-.06,0,0,0,0,.06,0,.05,0,.05,0,0,0,.05-.06,0,0,0,0,0-.06,0-.07,0-.08v0l0-.06v-.07l0,0h-.07l0,0h0v-.17l0,0,0,0,0,0,.05,0,.05-.05.07,0,.06.05h0l0,0h0l0,0,.05,0,.13-.08.07,0H22l.08,0,.08,0h.13l.12,0,.1,0,.12,0h.09l.12,0H23l.07,0,.15,0,.05,0,.07,0h0l0,0,.08,0,.06,0,.08,0,.06,0,.06,0,0,0,0,0,.08,0,0,0,0,0h0l0,0,0,0,.05,0,0,0,0,0,.06,0,0,0,0,0,0,0,0,0L24.48,9h0l0,0,0,0,0,0h0l0,0,0,0,0,0,0,0h.58v0h0v0h0V9h0l0,0,0,0v0l0,0v0l0,0v0h0v.07h.17v0h0l0,0v0h.5l0,0h0l0,0h0l0,0h0v0h.5l0,0h.15v0h0v0h0l0-.05h0l0,0h0l.05-.08v0l0,0H27l0,0h.06l0,0h0l0,0h0l0,0,0,0,0,0h0l0,0h0v0h0l0,0h0l0,0,0,0,0,0h0v0l0,0,0,0h.09l0,0,0,0h0v0h0l0,0h0l0,0h0l0,0,0,0h.26v0h0l.06.06,0,0h0v0h0l0,.06v0h0l0,0-.05.06h0v0h0v0h0v.06l0,0h0l0,0h0v0h0v0l.06.09h0l0,0h0v0h0v.19h0v0h0v0h0v0h0l0,.05h0v.05h0v0h0v.06h0v0l0,0h0v0h0v0h0l0,0h-.07l0,0h0l0,0h0v0h0l0,0,0,0v0h-.14v0h-.14l-.05,0h0v.06l0,0v.1l0,.06v0h0v0l0,0h0l0,.13v0l0,.08h-.07l0,0h0l0,0,0,0,0,.06,0,0,0,.06h0l0,0v0h0v0l0,0h.06v0h0v0h.08l0,0,0,0h0l0,0,0,0h0l0,0,0,0,0,.05,0,0,0,0h.12l0,0h0v.07h0v0h0v0h.05l0,0h0v0l0,.06,0,0h0l0,0v0h0v0h0v.06h0v.05h.34l0,0h0l.06,0,.06,0,0,0h.11v0h.27v0h0v0h.16v0h0v0h0v0h0v0H29v0h0l0,0h0v.05h0l0,0v0l0,0h0v0l0,0h0l0,0h0v0h0v0h0v0h.07l0,0h.06l0,0h0l0,0h0l0,0H29.4v0h0v0h0v0l0,0h0v0h0v0h0v0h0l0,0v0h.08v0h0l0,0H30v0h0v0l0,0h0v0h0v0l0,0h0v0h0v0h0v0h0v0h0l0,0h0l0,0H30l-.07.06v0h-.22v0l0,0h-.1v0h-.07l0,0v0h0v0h0v.09h0v0h.31v0h.08v0l0,.07h0v0h0v0h0v0h0v0l0,0h0l0,0h-.05v0h0v0h0v0h0v.08h.07v0h0v0h0v0H30l.07.14h0l.06.13.06.11,0,.08,0,0h0l0,.06h0l0,0,.05.07h0l0,0,0,.05h0v0l0,0Zm-8.95-3.27,0,0h0l0,0Z"/><path class="cls-2" d="M41.93,22.17V11.85h6.8v1.8H44v2.42H48v1.79H44v2.51h4.78v1.8Z"/><path class="cls-2" d="M56.18,22.17l-2-4.12H52.71v4.12h-2V11.85h4a3.73,3.73,0,0,1,1.41.25,3.23,3.23,0,0,1,1.05.68,2.91,2.91,0,0,1,.66,1A3.36,3.36,0,0,1,58.09,15a3,3,0,0,1-.15,1,2.66,2.66,0,0,1-.42.78,2.54,2.54,0,0,1-.6.58,2.83,2.83,0,0,1-.71.37l2.3,4.45ZM56.08,15a1.32,1.32,0,0,0-.4-1,1.5,1.5,0,0,0-1.07-.37h-1.9v2.72h1.9A1.46,1.46,0,0,0,55.68,16,1.31,1.31,0,0,0,56.08,15Z"/><path class="cls-2" d="M62.19,13.65v2.53h4.07V18H62.19v4.19h-2V11.85H67v1.8Z"/><path class="cls-2" d="M75.57,19.79a3.27,3.27,0,0,1-.76,1.29,3.89,3.89,0,0,1-1.33.89,4.28,4.28,0,0,1-1.59.28,3.79,3.79,0,0,1-2.79-1.13,3,3,0,0,1-.84-1.55A14.66,14.66,0,0,1,68.09,17a14.79,14.79,0,0,1,.17-2.57,3,3,0,0,1,.84-1.55,3.82,3.82,0,0,1,2.79-1.13,4.4,4.4,0,0,1,1.56.26,3.67,3.67,0,0,1,1.16.72,3.39,3.39,0,0,1,.78,1.06,4.57,4.57,0,0,1,.39,1.27h-2a1.76,1.76,0,0,0-1.86-1.51,1.62,1.62,0,0,0-1.29.55,3.75,3.75,0,0,0-.24.36,2.14,2.14,0,0,0-.15.5,6.72,6.72,0,0,0-.08.79c0,.32,0,.74,0,1.25s0,.93,0,1.24a6.5,6.5,0,0,0,.08.79,1.85,1.85,0,0,0,.14.51,1.72,1.72,0,0,0,.25.37,1.58,1.58,0,0,0,1.29.54,1.9,1.9,0,0,0,1.44-.58,2,2,0,0,0,.46-1.38v-.39h-1.9V16.43H75.8v1.51A6.33,6.33,0,0,1,75.57,19.79Z"/><path class="cls-2" d="M84.94,17c0,.44,0,.86,0,1.24a6.22,6.22,0,0,1-.1,1.09,4.07,4.07,0,0,1-.31.95,3.06,3.06,0,0,1-.6.83,3.69,3.69,0,0,1-2.78,1.13A3.89,3.89,0,0,1,79.56,22a3.85,3.85,0,0,1-1.23-.84,3.06,3.06,0,0,1-.6-.83,3.64,3.64,0,0,1-.3-.95,9,9,0,0,1-.1-1.09c0-.38,0-.8,0-1.24s0-.86,0-1.25a8.82,8.82,0,0,1,.1-1.08,3.64,3.64,0,0,1,.3-.95,3,3,0,0,1,.6-.84,4.2,4.2,0,0,1,1.23-.84,4.07,4.07,0,0,1,1.57-.29,4,4,0,0,1,1.56.29,4.16,4.16,0,0,1,1.22.84,3,3,0,0,1,.6.84,4.07,4.07,0,0,1,.31.95,6.1,6.1,0,0,1,.1,1.08C84.93,16.15,84.94,16.56,84.94,17Zm-2,0q0-.74,0-1.23a5.24,5.24,0,0,0-.08-.8,1.53,1.53,0,0,0-.16-.51,1.51,1.51,0,0,0-.24-.36,1.73,1.73,0,0,0-.55-.4,1.72,1.72,0,0,0-.74-.15,1.79,1.79,0,0,0-.75.15,1.67,1.67,0,0,0-.56.4,1.48,1.48,0,0,0-.23.36,1.81,1.81,0,0,0-.16.51,6.92,6.92,0,0,0-.08.8c0,.33,0,.74,0,1.23s0,.9,0,1.22a7.13,7.13,0,0,0,.08.81,1.81,1.81,0,0,0,.16.51,1.69,1.69,0,0,0,.23.36,1.83,1.83,0,0,0,1.31.55,1.58,1.58,0,0,0,.74-.16,1.71,1.71,0,0,0,.55-.39,1.74,1.74,0,0,0,.24-.36,1.53,1.53,0,0,0,.16-.51,5.39,5.39,0,0,0,.08-.81C82.92,17.91,82.93,17.5,82.93,17Z"/><path class="cls-2" d="M87,22.17V11.85h6.79v1.8H89v2.42h4.07v1.79H89v2.51h4.78v1.8Z"/><path class="cls-2" d="M103.26,17v1.16a6.74,6.74,0,0,1-.09,1.11,4,4,0,0,1-.31,1,3,3,0,0,1-.65.93,3.09,3.09,0,0,1-1.21.75,4.64,4.64,0,0,1-1.51.24H95.76V11.85h3.73a4.64,4.64,0,0,1,1.51.24,3.19,3.19,0,0,1,1.21.74,3,3,0,0,1,.65.92,3.87,3.87,0,0,1,.31,1,6.38,6.38,0,0,1,.09,1.08Zm-2,0c0-.38,0-.72,0-1a7.13,7.13,0,0,0-.06-.75,2.16,2.16,0,0,0-.13-.53,1.74,1.74,0,0,0-.23-.4,1.68,1.68,0,0,0-.63-.47,2.1,2.1,0,0,0-.88-.16H97.78v6.72H99.3a2.1,2.1,0,0,0,.88-.16,1.71,1.71,0,0,0,.63-.48,1.92,1.92,0,0,0,.35-1A15.81,15.81,0,0,0,101.24,17Z"/><path class="cls-2" d="M108.05,22.17V20.54l4.41-6.89h-4.22v-1.8h6.59v1.59l-4.42,6.93h4.42v1.8Z"/><path class="cls-2" d="M123.77,20.12a3.27,3.27,0,0,1-.82,1.14,3.49,3.49,0,0,1-1.2.73,4.4,4.4,0,0,1-3,0,3.49,3.49,0,0,1-1.2-.73,3.27,3.27,0,0,1-.82-1.14,3.74,3.74,0,0,1-.29-1.49V11.85h2v6.71A2,2,0,0,0,119,20a1.72,1.72,0,0,0,1.3.5,1.75,1.75,0,0,0,1.31-.5,1.91,1.91,0,0,0,.49-1.4V11.85h2v6.78A3.74,3.74,0,0,1,123.77,20.12Z"/><path class="cls-2" d="M126.3,22.17V11.85h2V22.17Z"/><path class="cls-2" d="M138.21,17v1.16a6.74,6.74,0,0,1-.09,1.11,4.44,4.44,0,0,1-.3,1,3.18,3.18,0,0,1-.66.93,3.09,3.09,0,0,1-1.21.75,4.64,4.64,0,0,1-1.51.24h-3.73V11.85h3.73a4.64,4.64,0,0,1,1.51.24,3.19,3.19,0,0,1,1.21.74,3.28,3.28,0,0,1,.66.92,4.28,4.28,0,0,1,.3,1,6.38,6.38,0,0,1,.09,1.08Zm-2,0c0-.38,0-.72,0-1a7.13,7.13,0,0,0-.06-.75,2.16,2.16,0,0,0-.13-.53,1.74,1.74,0,0,0-.23-.4,1.61,1.61,0,0,0-.63-.47,2.1,2.1,0,0,0-.88-.16h-1.52v6.72h1.52a2.1,2.1,0,0,0,.88-.16,1.63,1.63,0,0,0,.63-.48,1.92,1.92,0,0,0,.35-1A13.76,13.76,0,0,0,136.19,17Z"/><path class="cls-2" d="M148.91,22.17h-1.68l-1.89-6.26-1.9,6.26h-1.68L139,11.85h2.1l1.6,6.51,1.88-6.51h1.51L148,18.36l1.61-6.51h2.1Z"/><path class="cls-2" d="M153,22.17V11.85h6.8v1.8H155v2.42h4.07v1.79H155v2.51h4.78v1.8Z"/><path class="cls-2" d="M168.4,19.12a2.87,2.87,0,0,1-.29,1.34,2.92,2.92,0,0,1-.81,1,3.73,3.73,0,0,1-1.21.61,5.25,5.25,0,0,1-1.51.21,7.15,7.15,0,0,1-2.1-.29,4.15,4.15,0,0,1-1.67-1.07l1.31-1.3a2.58,2.58,0,0,0,1.13.68,4.91,4.91,0,0,0,1.36.19,2.33,2.33,0,0,0,1.36-.33,1.08,1.08,0,0,0,.46-.95,1.13,1.13,0,0,0-.32-.87,1.15,1.15,0,0,0-.35-.22,2.38,2.38,0,0,0-.56-.14L164,17.78a3.47,3.47,0,0,1-2-.86,2.71,2.71,0,0,1-.74-2,3.3,3.3,0,0,1,.24-1.27,2.78,2.78,0,0,1,.71-1A3.38,3.38,0,0,1,163.3,12a4.74,4.74,0,0,1,1.51-.23,5.54,5.54,0,0,1,1.87.28,3.78,3.78,0,0,1,1.46.93l-1.27,1.26a2.23,2.23,0,0,0-1.05-.59,5.08,5.08,0,0,0-1.07-.12,1.63,1.63,0,0,0-1.2.38,1.25,1.25,0,0,0-.39.92,1,1,0,0,0,.07.39,1.12,1.12,0,0,0,.23.35,1.44,1.44,0,0,0,.4.25,1.84,1.84,0,0,0,.56.15l1.22.18a5,5,0,0,1,1.17.3,2.71,2.71,0,0,1,.8.5,2.29,2.29,0,0,1,.61.94A4,4,0,0,1,168.4,19.12Z"/><path class="cls-2" d="M174.24,13.65v8.52h-2V13.65h-2.7v-1.8h7.41v1.8Z"/></g></g></svg>