<svg xmlns="http://www.w3.org/2000/svg" viewBox="0 0 40.8 30.88"><defs><style>.cls-1{isolation:isolate;}.cls-2{opacity:0.6;}.cls-3{fill:#93c021;}.cls-4{opacity:0.4;}.cls-5{fill:#fff;}.cls-6{fill:#164193;}.cls-7{fill:#ffec00;}.cls-8,.cls-9{mix-blend-mode:multiply;}.cls-9{fill:#9a5704;}</style></defs><title>Asset 2</title><g class="cls-1"><g id="Layer_2" data-name="Layer 2"><g id="Layer_1-2" data-name="Layer 1"><g class="cls-2"><rect class="cls-3" y="1.91" width="39.01" height="28.96"/></g><g class="cls-2"><rect class="cls-3" x="1.79" width="39.01" height="28.96"/></g><g class="cls-4"><rect class="cls-3" x="1.79" y="1.92" width="37.22" height="27.05"/></g><path class="cls-5" d="M5.25,12.46H6V13H5.25v1h.93v.49H4.71V11H6.18v.49H5.25Z"/><path class="cls-5" d="M7.18,11v2.65c0,.25.1.34.28.34s.28-.09.28-.34V11h.51v2.62a.76.76,0,0,1-.81.87c-.53,0-.8-.32-.8-.87V11Z"/><path class="cls-5" d="M9.89,14.45A1,1,0,0,1,9.84,14v-.54c0-.32-.1-.44-.35-.44H9.3v1.4H8.76V11h.82c.56,0,.8.26.8.79v.27a.68.68,0,0,1-.35.7c.27.11.35.37.35.73V14a1.09,1.09,0,0,0,.06.42ZM9.3,11.5v1.06h.21c.21,0,.33-.09.33-.36v-.34c0-.25-.08-.36-.28-.36Z"/><path class="cls-5" d="M10.84,11.84a.77.77,0,0,1,.82-.87.77.77,0,0,1,.82.87v1.79a.76.76,0,0,1-.82.86.76.76,0,0,1-.82-.86Zm.54,1.82c0,.25.11.34.28.34s.28-.09.28-.34V11.8c0-.24-.11-.34-.28-.34s-.28.1-.28.34Z"/><path class="cls-5" d="M14.58,11.86v.45a.74.74,0,0,1-.81.85h-.25v1.29H13V11h.79A.74.74,0,0,1,14.58,11.86Zm-1.06-.36v1.17h.25c.18,0,.27-.08.27-.33v-.51c0-.25-.09-.33-.27-.33Z"/><path class="cls-5" d="M15.52,12.46h.74V13h-.74v1h.93v.49H15V11h1.47v.49h-.93Z"/><path class="cls-5" d="M17.47,12.46h.74V13h-.74v1h.94v.49H16.93V11h1.48v.49h-.94Z"/><path class="cls-5" d="M19.61,11c.53,0,.8.32.8.87V12H19.9V11.8c0-.24-.1-.34-.27-.34s-.27.1-.27.34c0,.71,1.05.84,1.05,1.83,0,.55-.27.86-.8.86a.75.75,0,0,1-.81-.86v-.22h.51v.25c0,.25.11.33.28.33s.28-.08.28-.33c0-.71-1.05-.84-1.05-1.82C18.82,11.29,19.09,11,19.61,11Z"/><path class="cls-5" d="M21.63,14h.19c.17,0,.31-.06.31-.32V11h.54V13.6c0,.68-.37.86-.78.86h-.26Z"/><path class="cls-5" d="M24.93,14.45h-.54l-.09-.62h-.67l-.09.62H23L23.59,11h.79ZM23.7,13.36h.52L24,11.62Z"/><path class="cls-5" d="M27.08,14.45h-.54l-.1-.62h-.66l-.09.62h-.5L25.74,11h.79Zm-1.23-1.09h.52l-.26-1.74Z"/><path class="cls-5" d="M28.61,14.45a1,1,0,0,1-.05-.42v-.54c0-.32-.11-.44-.35-.44H28v1.4h-.54V11h.81c.56,0,.8.26.8.79v.27a.68.68,0,0,1-.35.7c.27.11.36.37.36.73V14a.93.93,0,0,0,.06.42ZM28,11.5v1.06h.21c.2,0,.32-.09.32-.36v-.34c0-.25-.08-.36-.27-.36Z"/><path class="cls-5" d="M5.65,18.32l.42-2.81h.49L6,19h-.8L4.7,15.51h.54Z"/><path class="cls-5" d="M8.63,19H8.09L8,18.33H7.33L7.24,19h-.5l.55-3.44h.79ZM7.4,17.86h.52l-.26-1.74Z"/><path class="cls-5" d="M9.51,16.46V19H9V15.51H9.7l.56,2.06V15.51h.48V19h-.56Z"/><path class="cls-5" d="M12.72,19h-.54V15.51h.54V17h.62V15.51h.55V19h-.55V17.48h-.62Z"/><path class="cls-5" d="M15,17h.74v.49H15v1h.93V19H14.43V15.51H15.9V16H15Z"/><path class="cls-5" d="M16.22,15.51h1.67V16h-.56V19h-.54V16h-.57Z"/><path class="cls-5" d="M20.75,17.67v.46c0,.55-.27.86-.8.86a.75.75,0,0,1-.81-.86V16.34a.76.76,0,0,1,.81-.87c.53,0,.8.32.8.87v.33h-.51V16.3c0-.24-.11-.33-.28-.33s-.28.09-.28.33v1.86c0,.25.11.34.28.34s.28-.09.28-.34v-.49Z"/><path class="cls-5" d="M21.75,15.51v2.66c0,.24.1.33.28.33s.28-.09.28-.33V15.51h.51v2.62a.81.81,0,1,1-1.62,0V15.51Z"/><path class="cls-5" d="M23.33,15.51h.54v3h.89V19H23.33Z"/><path class="cls-5" d="M24.63,15.51H26.3V16h-.56V19H25.2V16h-.57Z"/><path class="cls-5" d="M27.2,15.51v2.66c0,.24.11.33.28.33s.28-.09.28-.33V15.51h.51v2.62c0,.55-.27.87-.8.87a.76.76,0,0,1-.81-.87V15.51Z"/><path class="cls-5" d="M29.92,19a1,1,0,0,1-.05-.42V18c0-.32-.11-.44-.35-.44h-.19V19h-.54V15.51h.81c.56,0,.81.26.81.79v.27a.69.69,0,0,1-.36.7c.27.12.36.38.36.73v.53a1.09,1.09,0,0,0,.06.42ZM29.33,16v1.06h.21c.2,0,.33-.09.33-.36v-.34c0-.25-.09-.36-.28-.36Z"/><path class="cls-5" d="M31.45,17h.74v.49h-.74v1h.94V19H30.91V15.51h1.48V16h-.94Z"/><path class="cls-5" d="M33.41,17h.74v.49h-.74v1h.93V19H32.87V15.51h1.47V16h-.93Z"/><path class="cls-5" d="M34.82,15.51h.54v3h.89V19H34.82Z"/><path class="cls-5" d="M5.25,21.46H6V22H5.25v1h.93v.49H4.71V20H6.18v.5H5.25Z"/><path class="cls-5" d="M7.79,23.45a1,1,0,0,1,0-.42v-.54c0-.32-.11-.44-.35-.44H7.2v1.4H6.66V20h.82a.7.7,0,0,1,.8.8v.27a.68.68,0,0,1-.36.69c.27.12.36.38.36.74V23a1,1,0,0,0,.06.41ZM7.2,20.51v1h.21c.2,0,.33-.09.33-.36v-.34c0-.25-.09-.35-.28-.35Z"/><path class="cls-5" d="M9.32,21.54H10V22h-.7v1.42H8.78V20h1.43v.5H9.32Z"/><path class="cls-5" d="M11.36,21.54h.75v1.09c0,.55-.27.86-.8.86a.75.75,0,0,1-.81-.86V20.84a.75.75,0,0,1,.81-.86c.53,0,.8.31.8.86v.33H11.6v-.36c0-.25-.11-.34-.28-.34s-.28.09-.28.34v1.85c0,.25.11.34.28.34s.28-.09.28-.34V22h-.24Z"/><path class="cls-5" d="M12.57,20.84a.76.76,0,0,1,.82-.86.76.76,0,0,1,.82.86v1.79a.76.76,0,0,1-.82.86.76.76,0,0,1-.82-.86Zm.54,1.82c0,.25.1.34.28.34s.28-.09.28-.34V20.81c0-.25-.11-.34-.28-.34s-.28.09-.28.34Z"/><path class="cls-5" d="M15.24,21.46H16V22h-.74v1h.94v.49H14.7V20h1.48v.5h-.94Z"/><path class="cls-5" d="M16.66,20h.85a.74.74,0,0,1,.81.85V22.6a.74.74,0,0,1-.81.85h-.85Zm.54.5V23h.3c.17,0,.28-.09.28-.33V20.84c0-.25-.11-.33-.28-.33Z"/><path class="cls-5" d="M5.9,5.25c-.26,0-.43.14-.43.51v.56H4.7v-.5c0-.84.41-1.31,1.22-1.31S7.14,5,7.14,5.82c0,1.71-1.78,2.3-1.62,3.21H7.07v.75H4.7V9.14c0-1.54,1.62-1.79,1.62-3.29C6.32,5.38,6.16,5.25,5.9,5.25Z"/><path class="cls-5" d="M7.58,5.82A1.15,1.15,0,0,1,8.82,4.51a1.16,1.16,0,0,1,1.25,1.31V8.53A1.16,1.16,0,0,1,8.82,9.84,1.16,1.16,0,0,1,7.58,8.53ZM8.4,8.58c0,.37.16.51.42.51s.43-.14.43-.51V5.76c0-.37-.17-.51-.43-.51s-.42.14-.42.51Z"/><path class="cls-5" d="M10.51,5.22a.81.81,0,0,0,.91-.66H12V9.78h-.82v-4h-.64Z"/><path class="cls-5" d="M13.84,9.84a1.17,1.17,0,0,1-1.28-1.31V8.12A1.16,1.16,0,0,1,13.06,7a1.09,1.09,0,0,1-.5-1V5.82a1.17,1.17,0,0,1,1.28-1.31,1.17,1.17,0,0,1,1.28,1.31V6a1.1,1.1,0,0,1-.51,1,1.15,1.15,0,0,1,.51,1.09v.41A1.18,1.18,0,0,1,13.84,9.84Zm-.46-3.7c0,.41.19.55.46.55s.46-.14.46-.55V5.85c0-.47-.2-.6-.46-.6s-.46.13-.46.6Zm.46,3c.26,0,.45-.12.46-.59V8c0-.41-.17-.59-.46-.59s-.46.18-.46.59V8.5C13.38,9,13.58,9.09,13.84,9.09Z"/><rect class="cls-5" x="18.02" y="4.41" width="8.14" height="5.53"/><rect class="cls-6" x="18.18" y="4.56" width="7.83" height="5.22"/><polygon class="cls-7" points="21.93 5.7 22.09 5.57 22.26 5.7 22.19 5.5 22.36 5.38 22.15 5.38 22.09 5.18 22.03 5.38 21.82 5.38 21.99 5.5 21.93 5.7"/><polygon class="cls-7" points="21.07 5.92 21.23 5.8 21.4 5.92 21.34 5.73 21.5 5.61 21.3 5.61 21.23 5.41 21.17 5.61 20.96 5.61 21.13 5.73 21.07 5.92"/><polygon class="cls-7" points="20.61 6.04 20.55 6.24 20.34 6.24 20.51 6.36 20.44 6.55 20.61 6.43 20.77 6.55 20.71 6.36 20.88 6.24 20.67 6.24 20.61 6.04"/><polygon class="cls-7" points="20.38 7.29 20.55 7.41 20.48 7.21 20.65 7.09 20.44 7.09 20.38 6.89 20.32 7.09 20.11 7.09 20.28 7.21 20.21 7.41 20.38 7.29"/><polygon class="cls-7" points="20.67 7.95 20.61 7.75 20.55 7.95 20.34 7.95 20.51 8.07 20.45 8.26 20.61 8.14 20.77 8.26 20.71 8.07 20.88 7.95 20.67 7.95"/><polygon class="cls-7" points="21.3 8.57 21.24 8.38 21.17 8.57 20.97 8.57 21.13 8.69 21.07 8.89 21.24 8.77 21.4 8.89 21.34 8.69 21.51 8.57 21.3 8.57"/><polygon class="cls-7" points="22.15 8.8 22.09 8.6 22.03 8.8 21.82 8.8 21.99 8.92 21.93 9.12 22.09 9 22.26 9.12 22.19 8.92 22.36 8.8 22.15 8.8"/><polygon class="cls-7" points="23.01 8.57 22.95 8.38 22.88 8.57 22.67 8.57 22.84 8.69 22.78 8.89 22.95 8.77 23.11 8.89 23.05 8.69 23.21 8.57 23.01 8.57"/><polygon class="cls-7" points="23.64 7.95 23.57 7.75 23.51 7.95 23.3 7.95 23.47 8.07 23.41 8.26 23.57 8.14 23.74 8.26 23.67 8.07 23.84 7.95 23.64 7.95"/><polygon class="cls-7" points="24.07 7.09 23.86 7.09 23.8 6.89 23.73 7.09 23.53 7.09 23.7 7.21 23.63 7.4 23.8 7.28 23.96 7.4 23.9 7.21 24.07 7.09"/><polygon class="cls-7" points="23.41 6.55 23.57 6.43 23.74 6.55 23.67 6.35 23.84 6.23 23.64 6.23 23.57 6.04 23.51 6.23 23.3 6.23 23.47 6.35 23.41 6.55"/><polygon class="cls-7" points="22.95 5.41 22.88 5.61 22.68 5.61 22.84 5.73 22.78 5.92 22.95 5.8 23.11 5.92 23.05 5.73 23.22 5.61 23.01 5.61 22.95 5.41"/><g class="cls-8"><path class="cls-9" d="M27.72,26.7a1.19,1.19,0,0,0,.47-.09.08.08,0,0,0,0-.09l0-.11c0-.06,0-.05-.1-.05l-.35,0c-.21,0-.31-.09-.32-.4h.71c.13,0,.16-.07.16-.19,0-.35-.09-.71-.61-.71s-.62.5-.62.81.08.8.63.8m0-1.33c.2,0,.24.17.25.38h-.51c0-.26.08-.38.26-.38m-.81-.22s0-.06-.07,0a.93.93,0,0,0-.41.2h0v-.12s0-.06-.07-.06h-.22c-.05,0-.06,0-.06.06v1.43s0,.06.06.06h.22c.06,0,.07,0,.07-.06v-1a2.71,2.71,0,0,1,.43-.14c.06,0,.07,0,.06-.09Zm-1.58,1.39v.07s0,.06.06.06h.22c.06,0,.07,0,.07-.06V25.18s0-.06-.07-.06h-.21c-.06,0-.07,0-.07.06v1.08a.83.83,0,0,1-.33.12c-.12,0-.18-.05-.18-.29s0-.79,0-.91,0-.06-.07-.06h-.22c-.05,0-.07,0-.07.06v1c0,.27,0,.5.42.5a.68.68,0,0,0,.42-.17h0m-1.08-.12c0-.05,0-.06-.08-.05H24c-.12,0-.15,0-.15-.21V25.4h.29c.06,0,.06,0,.06-.07v-.15s0-.06-.06-.06h-.28v-.41c0-.05,0-.06-.08-.05l-.2.06s-.07,0-.07.07v.33h-.12c-.06,0-.07,0-.07.06v.16s0,.06.07.06h.12v.91c0,.24.08.39.38.39a1,1,0,0,0,.36-.07.08.08,0,0,0,0-.09Zm-1.36.27a.52.52,0,0,0,.21,0,.08.08,0,0,0,0-.07v-.14c0-.05,0-.05-.08-.05s-.11,0-.11-.11V24.5s0-.06-.07-.06h-.2c-.06,0-.07,0-.07.06v1.84c0,.23.06.35.3.35m-1-.15v.07s0,.06.06.06h.22c.05,0,.07,0,.07-.06V25.18s0-.06-.07-.06h-.21c-.06,0-.07,0-.07.06v1.08a.89.89,0,0,1-.33.12c-.12,0-.18-.05-.18-.29v-.91s0-.06-.06-.06h-.22c-.06,0-.07,0-.07.06v1c0,.27,0,.5.41.5a.68.68,0,0,0,.43-.17h0m-2.49-.91c0,.55.13,1.07.77,1.07a1.55,1.55,0,0,0,.53-.09c.05,0,.07-.06.06-.11l0-.12s0-.06-.1-.05l-.44,0c-.34,0-.41-.32-.41-.73s.05-.75.41-.75l.44,0c.07,0,.09,0,.1,0l0-.13s0-.08-.06-.11a1.63,1.63,0,0,0-.52-.09c-.65,0-.78.55-.78,1.09m-.24-.48s0-.06-.06,0a.93.93,0,0,0-.41.2h0v-.12s0-.06-.07-.06h-.22a.05.05,0,0,0-.06.06v1.43a.05.05,0,0,0,.06.06h.23c.05,0,.06,0,.06-.06v-1a2.89,2.89,0,0,1,.44-.14c.06,0,.07,0,.06-.09Zm-1.56.74c0,.34,0,.5-.28.5s-.26-.16-.26-.5.05-.5.26-.5.28.17.28.5m.35,0c0-.37-.06-.78-.63-.78s-.62.5-.62.78,0,.83.62.83.63-.46.63-.83m-2.55-1.25v2s0,.06.07.06h.22c.06,0,.07,0,.07-.06v-.87h.64c.05,0,.06,0,.06-.06v-.2a.05.05,0,0,0-.06-.06h-.64v-.54h.74c.05,0,.07,0,.07-.06v-.2s0-.05-.07-.05h-1c-.06,0-.07,0-.07.05m-1,2.08a1.23,1.23,0,0,0,.47-.09.07.07,0,0,0,0-.09l0-.11c0-.06,0-.05-.09-.05l-.36,0c-.2,0-.3-.09-.31-.4h.71c.12,0,.16-.07.16-.19,0-.35-.1-.71-.61-.71s-.62.5-.62.81.08.8.63.8m0-1.33c.21,0,.25.17.25.38h-.5c0-.26.08-.38.25-.38m-1.24.51c0,.4-.07.52-.25.52a.88.88,0,0,1-.29,0v-.82a.91.91,0,0,1,.34-.11c.12,0,.2.07.2.46m-.53.77a1,1,0,0,0,.32.06c.45,0,.57-.31.57-.82s-.1-.8-.48-.8a.74.74,0,0,0-.41.16h0v-.06s0-.06-.06-.06h-.22c-.05,0-.07,0-.07.06v2s0,.06.07.06h.22c.06,0,.06,0,.06-.06v-.54Zm-1-.76c0,.34-.05.5-.28.5s-.26-.16-.26-.5.05-.5.27-.5.27.17.27.5m.36,0c0-.37-.07-.78-.64-.78s-.61.5-.61.78,0,.83.61.83.64-.46.64-.83m-1.45-.72s0-.06-.06,0a.93.93,0,0,0-.41.2h0v-.12s0-.06-.07-.06H9.7a.05.05,0,0,0-.06.06v1.43a.05.05,0,0,0,.06.06h.23c.05,0,.06,0,.06-.06v-1a2.89,2.89,0,0,1,.44-.14c.06,0,.07,0,.06-.09ZM8.89,26.54v.07s0,.06.07.06h.22c.05,0,.06,0,.06-.06V25.18s0-.06-.06-.06H9c-.05,0-.07,0-.07.06v1.08a.78.78,0,0,1-.33.12c-.11,0-.17-.05-.17-.29v-.91s0-.06-.06-.06H8.11c-.06,0-.07,0-.07.06v1c0,.27,0,.5.41.5a.68.68,0,0,0,.43-.17h0m-1.16.08v-.2s0-.06-.05-.06H6.9v-.64h.65c.06,0,.07,0,.07,0v-.2s0-.06-.07-.06H6.9v-.53h.74c.05,0,.06,0,.06-.06v-.2s0-.05-.07-.05h-1s-.07,0-.07.06v2s0,.05.07.05H7.67c.06,0,.06,0,.06-.05m-2.32-1.2h.24l-.08.31H5.34Zm0,1.2s0,.05,0,.05h.17s0,0,0,0L5.78,26h.34s0,0,.06,0v-.14s0-.05,0-.05h-.3l.08-.31h.32s.06,0,.06,0v-.14s0,0,0,0H6l.14-.57s0-.05,0-.05H5.89s0,0,0,.05l-.14.57H5.47l.13-.57s0-.05,0-.05H5.4c-.05,0-.05,0-.06.05l-.13.57H4.89s-.06,0-.06,0v.14s0,0,.06,0h.27l-.07.31H4.77s-.06,0-.06.05v.14a0,0,0,0,0,0,0H5l-.15.65s0,.05,0,.05h.17s0,0,0,0L5.29,26h.23Z"/></g></g></g></g></svg>