<svg xmlns="http://www.w3.org/2000/svg" viewBox="0 0 78.04 32.87"><defs><style>.cls-1{fill:#93c021;}</style></defs><title>Asset 4</title><g id="Layer_2" data-name="Layer 2"><g id="Layer_1-2" data-name="Layer 1"><path class="cls-1" d="M30.63,8.42l-2.52,7.32h-1.5L24.09,8.42h1.35L27.36,14l1.91-5.55Z"/><path class="cls-1" d="M31.51,7.81l1.11-.11h.17v7.93H31.51Z"/><path class="cls-1" d="M38.5,15.74a1.58,1.58,0,0,1-.63-.13,1.87,1.87,0,0,1-.64-.47,2.93,2.93,0,0,1-.66.42,2,2,0,0,1-.87.18,2.49,2.49,0,0,1-.83-.14,1.46,1.46,0,0,1-.73-.53,1.93,1.93,0,0,1-.31-1.14,1.49,1.49,0,0,1,.42-1.17,2.34,2.34,0,0,1,1.57-.42,10.69,10.69,0,0,1,1.16.05V12.1a1,1,0,0,0-.32-.83,1.27,1.27,0,0,0-.79-.23,3.07,3.07,0,0,0-.77.12,4.44,4.44,0,0,0-.75.27l-.3-1.12a5.11,5.11,0,0,1,2.07-.48,2.44,2.44,0,0,1,1.49.42,1.69,1.69,0,0,1,.63,1.45v2.12a.75.75,0,0,0,.24.59,1.31,1.31,0,0,0,.6.25ZM37,13.33a7.59,7.59,0,0,0-1.38.06.54.54,0,0,0-.49.58.71.71,0,0,0,.8.72,1.31,1.31,0,0,0,.65-.17.92.92,0,0,0,.42-.85Z"/><path class="cls-1" d="M44.09,15.74a1.58,1.58,0,0,1-.63-.13,1.78,1.78,0,0,1-.64-.47,3.18,3.18,0,0,1-.66.42,2,2,0,0,1-.88.18,2.49,2.49,0,0,1-.83-.14,1.44,1.44,0,0,1-.72-.53,1.86,1.86,0,0,1-.32-1.14,1.46,1.46,0,0,1,.43-1.17,2.32,2.32,0,0,1,1.57-.42,10.69,10.69,0,0,1,1.16.05V12.1a1,1,0,0,0-.33-.83,1.23,1.23,0,0,0-.78-.23,3.07,3.07,0,0,0-.77.12,4.15,4.15,0,0,0-.75.27l-.3-1.12a5,5,0,0,1,2.07-.48,2.39,2.39,0,0,1,1.48.42,1.7,1.7,0,0,1,.64,1.45v2.12a.75.75,0,0,0,.24.59,1.31,1.31,0,0,0,.6.25Zm-1.53-2.41a7.47,7.47,0,0,0-1.37.06.55.55,0,0,0-.5.58.72.72,0,0,0,.8.72,1.32,1.32,0,0,0,.66-.17.92.92,0,0,0,.41-.85Z"/><path class="cls-1" d="M45.44,10h1.08l.13.44a3.3,3.3,0,0,1,1.81-.55,2.23,2.23,0,0,1,1.44.47,2,2,0,0,1,.62,1.55v3.77H49.24v-3.4a1.08,1.08,0,0,0-.39-.9,1.46,1.46,0,0,0-.89-.26,2.39,2.39,0,0,0-1.24.35v4.21H45.44Z"/><path class="cls-1" d="M56.65,15.63h-1l-.23-.43a2.4,2.4,0,0,1-1.52.54,2.23,2.23,0,0,1-1.83-.84A3,3,0,0,1,51.51,13a3.24,3.24,0,0,1,.86-2.4,3,3,0,0,1,2.16-.78,6.28,6.28,0,0,1,.84.05V7.81l1.08-.11h.2Zm-1.28-4.48a3.93,3.93,0,0,0-.91-.12,1.55,1.55,0,0,0-1.18.44,1.84,1.84,0,0,0-.45,1.32A2.05,2.05,0,0,0,53.18,14a1.21,1.21,0,0,0,1,.53,2.25,2.25,0,0,0,1.17-.35Z"/><path class="cls-1" d="M62.23,14.15V15.4a3.3,3.3,0,0,1-.81.25,3.92,3.92,0,0,1-.8.09,3,3,0,0,1-2-.74,2.86,2.86,0,0,1-.88-2.21,3.11,3.11,0,0,1,.8-2.2,2.47,2.47,0,0,1,1.76-.75,2.71,2.71,0,0,1,.83.13,2,2,0,0,1,1,.72,2.88,2.88,0,0,1,.46,1.72v.85H59.08a1.47,1.47,0,0,0,.64,1,1.86,1.86,0,0,0,1,.28,3.14,3.14,0,0,0,1.43-.37Zm-.88-1.9a1.44,1.44,0,0,0-.37-.91,1,1,0,0,0-.7-.27,1.15,1.15,0,0,0-.75.28,1.53,1.53,0,0,0-.47.9Z"/><path class="cls-1" d="M66.84,11.36a1.78,1.78,0,0,0-1-.29,1.91,1.91,0,0,0-1.15.42v4.14H63.45V10h1.09l.13.46a2.21,2.21,0,0,1,1.44-.57,3.24,3.24,0,0,1,.58.05,2,2,0,0,1,.55.17Z"/><path class="cls-1" d="M71.73,14.15V15.4a3.3,3.3,0,0,1-.81.25,3.92,3.92,0,0,1-.8.09A3,3,0,0,1,68.07,15a2.86,2.86,0,0,1-.88-2.21,3.11,3.11,0,0,1,.8-2.2,2.47,2.47,0,0,1,1.76-.75,2.71,2.71,0,0,1,.83.13,2,2,0,0,1,1,.72A2.88,2.88,0,0,1,72,12.41v.85H68.57a1.51,1.51,0,0,0,.65,1,1.86,1.86,0,0,0,1,.28,3.14,3.14,0,0,0,1.43-.37Zm-.88-1.9a1.44,1.44,0,0,0-.37-.91,1,1,0,0,0-.7-.27,1.15,1.15,0,0,0-.75.28,1.53,1.53,0,0,0-.47.9Z"/><path class="cls-1" d="M73,10H74l.12.44A3.35,3.35,0,0,1,76,9.84a2.23,2.23,0,0,1,1.44.47A2,2,0,0,1,78,11.86v3.77H76.76v-3.4a1.11,1.11,0,0,0-.39-.9,1.51,1.51,0,0,0-.9-.26,2.39,2.39,0,0,0-1.24.35v4.21H73Z"/><path class="cls-1" d="M28.69,20.63l-1.11,3.22h-.65l-1.1-3.22h.5l.93,2.71.93-2.71Z"/><path class="cls-1" d="M31.51,22.36h-2a1.25,1.25,0,0,0,.35.83,1,1,0,0,0,.72.27,1.92,1.92,0,0,0,.87-.23h0v.44a2,2,0,0,1-.93.23,1.45,1.45,0,0,1-1.05-.41A1.82,1.82,0,0,1,29,22.2,1.89,1.89,0,0,1,29.36,21a1.25,1.25,0,0,1,1.05-.47,1.15,1.15,0,0,1,.73.22,1,1,0,0,1,.31.52,2.61,2.61,0,0,1,.06.62ZM31,21.92a1.41,1.41,0,0,0-.13-.64A.54.54,0,0,0,30.4,21a.79.79,0,0,0-.59.26,1.22,1.22,0,0,0-.29.65Z"/><path class="cls-1" d="M32.37,20.63h.33l.11.36a1.06,1.06,0,0,1,.79-.43l.27,0a.88.88,0,0,1,.26.09l-.16.43a1.18,1.18,0,0,0-.45-.1.83.83,0,0,0-.67.43v2.41h-.48Z"/><path class="cls-1" d="M34.74,19.41l.45-.06h0v1.5a1.32,1.32,0,0,1,1.84.19,1.87,1.87,0,0,1,.38,1.18,1.78,1.78,0,0,1-.4,1.19,1.53,1.53,0,0,1-1.23.5,2.68,2.68,0,0,1-1.07-.23Zm.48,4a1.54,1.54,0,0,0,.63.1,1.06,1.06,0,0,0,.8-.34,1.44,1.44,0,0,0,.31-.95,1.35,1.35,0,0,0-.23-.82A.87.87,0,0,0,36,21a.9.9,0,0,0-.76.35Z"/><path class="cls-1" d="M40.42,22.36h-2a1.25,1.25,0,0,0,.35.83,1,1,0,0,0,.72.27,1.92,1.92,0,0,0,.87-.23h0v.44a2,2,0,0,1-.93.23,1.45,1.45,0,0,1-1-.41,1.82,1.82,0,0,1-.45-1.3A1.89,1.89,0,0,1,38.27,21a1.25,1.25,0,0,1,1-.47,1.15,1.15,0,0,1,.73.22,1,1,0,0,1,.31.52,2.61,2.61,0,0,1,.06.62ZM40,21.92a1.41,1.41,0,0,0-.13-.64.54.54,0,0,0-.51-.27.79.79,0,0,0-.59.26,1.22,1.22,0,0,0-.29.65Z"/><path class="cls-1" d="M43.36,22.36h-2a1.25,1.25,0,0,0,.35.83,1,1,0,0,0,.72.27,1.92,1.92,0,0,0,.87-.23h0v.44a2,2,0,0,1-.93.23,1.43,1.43,0,0,1-1-.41,1.82,1.82,0,0,1-.45-1.3A1.89,1.89,0,0,1,41.21,21a1.24,1.24,0,0,1,1-.47,1.15,1.15,0,0,1,.73.22,1,1,0,0,1,.31.52,2.61,2.61,0,0,1,.06.62Zm-.47-.44a1.41,1.41,0,0,0-.13-.64.54.54,0,0,0-.51-.27.78.78,0,0,0-.59.26,1.22,1.22,0,0,0-.29.65Z"/><path class="cls-1" d="M44.06,19.41l.45-.06h0v4.5h-.48Z"/><path class="cls-1" d="M48,23.85h-.31l-.1-.29a1.29,1.29,0,0,1-.91.35,1.26,1.26,0,0,1-1-.51,2,2,0,0,1-.38-1.21,1.65,1.65,0,0,1,.4-1.15,1.57,1.57,0,0,1,1.23-.48,2.8,2.8,0,0,1,.59.07V19.41l.45-.06h0Zm-.49-2.72a1.82,1.82,0,0,0-.63-.13,1.07,1.07,0,0,0-.79.31,1.28,1.28,0,0,0-.32.92,1.6,1.6,0,0,0,.23.86,1,1,0,0,0,1.51,0Z"/><path class="cls-1" d="M49,19.75a.35.35,0,0,1,.1-.24.33.33,0,0,1,.23-.1.37.37,0,0,1,.24.1.35.35,0,0,1,.1.24.33.33,0,0,1-.1.23.37.37,0,0,1-.24.1.34.34,0,0,1-.33-.33Zm.09.88h.48v3.22h-.48Z"/><path class="cls-1" d="M50.64,20.63H51l.09.29a4.12,4.12,0,0,1,.47-.24,1.4,1.4,0,0,1,.5-.12,1.16,1.16,0,0,1,.8.27,1.25,1.25,0,0,1,.34,1v2.06h-.48v-2a.83.83,0,0,0-.21-.64A.65.65,0,0,0,52,21a1.13,1.13,0,0,0-.44.1,2.63,2.63,0,0,0-.41.21v2.53h-.48Z"/><path class="cls-1" d="M55.39,23.18a1.58,1.58,0,0,1,1,.27.78.78,0,0,1,.31.63,1.12,1.12,0,0,1-.52.89,2,2,0,0,1-1.14.36,1.26,1.26,0,0,1-.87-.3,1,1,0,0,1-.32-.72,1.21,1.21,0,0,1,.39-.82.5.5,0,0,1-.2-.23A.82.82,0,0,1,54,23a.86.86,0,0,1,.24-.56.84.84,0,0,1-.2-.36,1.18,1.18,0,0,1-.07-.41,1,1,0,0,1,.33-.77,1.27,1.27,0,0,1,.86-.31,1.39,1.39,0,0,1,.63.15,2,2,0,0,1,.43-.24,1,1,0,0,1,.39-.08l.14.4a1.6,1.6,0,0,0-.6.24,1,1,0,0,1,.18.6,1.1,1.1,0,0,1-.33.79,1.24,1.24,0,0,1-.87.34,1.27,1.27,0,0,1-.6-.14.43.43,0,0,0-.1.27c0,.16.14.29.39.29Zm-.79.41a1.11,1.11,0,0,0-.29.67.63.63,0,0,0,.18.47.85.85,0,0,0,.61.19,1.29,1.29,0,0,0,.79-.26.7.7,0,0,0,.31-.55.44.44,0,0,0-.36-.44,3.26,3.26,0,0,0-.88-.08Zm.51-2.6a.75.75,0,0,0-.55.22.67.67,0,0,0-.18.46.61.61,0,0,0,.19.45.72.72,0,0,0,.55.22.71.71,0,0,0,.54-.22.64.64,0,0,0,.18-.45.69.69,0,0,0-.18-.46A.75.75,0,0,0,55.11,21Z"/><path class="cls-1" d="M63.46,20.63l-1,3.22h-.59l-.72-2.45-.72,2.45h-.6l-1-3.22h.47l.85,2.69.8-2.69h.44l.8,2.69L63,20.63Z"/><path class="cls-1" d="M66.29,22.36h-2a1.25,1.25,0,0,0,.35.83,1,1,0,0,0,.72.27,1.92,1.92,0,0,0,.87-.23h0v.44a2,2,0,0,1-.93.23,1.45,1.45,0,0,1-1-.41,1.82,1.82,0,0,1-.45-1.3A1.89,1.89,0,0,1,64.14,21a1.25,1.25,0,0,1,1-.47,1.15,1.15,0,0,1,.73.22,1,1,0,0,1,.31.52,2.61,2.61,0,0,1,.06.62Zm-.47-.44a1.41,1.41,0,0,0-.13-.64.54.54,0,0,0-.51-.27.79.79,0,0,0-.59.26,1.22,1.22,0,0,0-.29.65Z"/><path class="cls-1" d="M67.15,20.63h.33l.11.36a1.06,1.06,0,0,1,.79-.43l.27,0a.88.88,0,0,1,.26.09l-.16.43a1.14,1.14,0,0,0-.45-.1.83.83,0,0,0-.67.43v2.41h-.48Z"/><path class="cls-1" d="M71.76,23.91a1.07,1.07,0,0,1-.54-.26,3.22,3.22,0,0,1-.56-.55,6.39,6.39,0,0,1-.46-.56c-.06-.08-.1-.15-.14-.21a.62.62,0,0,1-.06-.12v1.64h-.48V19.44l.45-.09h0v2.8l1.28-1.52h.61l-1.31,1.55a1.29,1.29,0,0,0,.27.4,4.64,4.64,0,0,0,.54.55,1.77,1.77,0,0,0,.57.36Z"/><path class="cls-1" d="M72.17,20.63h.36v-.58L73,20h0v.67h.89v.44H73v1.59a1,1,0,0,0,.17.62.5.5,0,0,0,.41.19,1.27,1.27,0,0,0,.61-.19l.13.44a2.07,2.07,0,0,1-.8.19.89.89,0,0,1-.71-.29,1.39,1.39,0,0,1-.29-1V21.07h-.36Z"/><rect class="cls-1" x="20.08" y="-0.9" width="0.17" height="34.67" transform="translate(-4.22 7.37) rotate(-18.78)"/><path class="cls-1" d="M14.57,16.37c-.8-.62-1.18,0-1.69,0s-.83-.72-1.16-.56c-.63.32.26,1.46.64,1.7s.77.39.88.44A1.27,1.27,0,0,1,14,19.07a2.13,2.13,0,0,1,0,.56,2.2,2.2,0,0,1-3,1.2,2.27,2.27,0,0,1-1-1.46c-.26-1.3-1.2-2.25-1.5-3.52-.18-.77-.32-1.58-.52-2.35s-.41-1.6-.58-2.32a18.8,18.8,0,0,0-.71-2.31C5.74,6.4,5.31,6.58,5.31,6.58a51.65,51.65,0,0,1,1.6,6.74,33.74,33.74,0,0,0,.84,3.8c.12.31.32,1,.46,1.28.4.87,1.45,2.19,1.52,3.37,0,.69.12,1.26.14,1.78a5.29,5.29,0,0,0,.17,1c.26.72,2.33,3.06,4.54,3.06V25.88a8,8,0,0,1-4.3-1.36,4.38,4.38,0,0,1,.26-1.26,2.07,2.07,0,0,1,1.78-1.45,12.89,12.89,0,0,1,2.26.23Z"/><path class="cls-1" d="M5.07,10c-.09,1.32-2.14,3.14-2.78,4.3a8.74,8.74,0,0,0-.8,2.12A5.68,5.68,0,0,0,2,19.85c.68,1.63-.09,2.23.44,1.9.66-.54.56-1.78.51-2.56a11.47,11.47,0,0,1,0-2.11,10.07,10.07,0,0,1,1.77-4A3.67,3.67,0,0,0,5.07,10"/><path class="cls-1" d="M5.48,13.71s.22,1-.71,3.75C2.35,24.52,7,25.19,8.29,26.85c0,0,.51-.72-1.59-3-.76-.85-1.45-2.7-.85-5.34.87-3.83-.37-4.78-.37-4.78"/><path class="cls-1" d="M.9,9.08A3.51,3.51,0,0,1,.78,8a3.34,3.34,0,0,1,2-2.57s.68-.47.77-.94a2.29,2.29,0,0,1-.9,2.75A4.54,4.54,0,0,0,.9,9.08"/><path class="cls-1" d="M4.7,7.48c.08.17.71,1.08-1.85,3.19S1.1,14.29,1.1,14.29s-2.73-1.52.41-4.14S4,7,4,7a.79.79,0,0,1,.7.47"/><path class="cls-1" d="M8,8.29c.44.06.72,1.43,1.74,1.73.75.22,1.55.1,1.73.56-.35.18-.08.79.27.69C12.05,10.46,12.19,7.35,8,8.29Zm1.37.62c0-.1.09,0,.2-.09s.25-.3.44-.36a.8.8,0,0,1,.46,0c.09,0,0,.24,0,.3s-.55-.07-.55.24c0,.5.68,0,1,0C11.1,10.25,9.09,9.91,9.39,8.91Z"/></g></g></svg>