<?xml version="1.0" encoding="utf-8"?>
<!-- Generator: Adobe Illustrator 23.0.4, SVG Export Plug-In . SVG Version: 6.00 Build 0)  -->
<svg version="1.1" id="Layer_1" xmlns="http://www.w3.org/2000/svg" xmlns:xlink="http://www.w3.org/1999/xlink" x="0px" y="0px"
	 viewBox="0 0 20 20" style="enable-background:new 0 0 20 20;" xml:space="preserve">
<style type="text/css">
	.st0{display:none;}
	.st1{display:inline;}
	.st2{fill:#FFFFFF;}
</style>
<g class="st0">
	<path class="st1" d="M7.5,7.5h3.6c0.4,0,0.7,0.3,0.7,0.7v1.4c0,0.8,0.1,1.5,0.3,2.2c0.2-0.8,0.3-1.5,0.3-2.2V8.2
		c0-0.4,0.3-0.7,0.7-0.7h0.2V7.1H13c-0.2,0-0.3,0-0.5-0.1v0.1c-0.1,0.1-0.2,0.2-0.3,0.2s-0.1,0-0.2,0s-0.1-0.1-0.2-0.2V6.8
		c0,0,0-0.1,0.1-0.1c0.1-0.2,0.3-0.4,0.6-0.4c0.1,0,0.1,0,0.2,0c0.1,0,0.2,0.1,0.4,0.1h0.3c0.1,0,0.1,0,0.2,0c0.1,0,0.3,0,0.4,0.1
		s0.2,0.3,0.2,0.5v0.2c0,0.1,0,0.2,0.1,0.4h2C16,7.4,16,7.3,16,7.2V5.3c0-0.6-0.5-1.1-1.1-1.1c-0.1,0-0.2,0-0.4,0.1
		c-0.1,0-0.1,0-0.2,0c-0.2,0-0.5-0.1-0.6-0.4c-0.2-0.4-0.6-0.7-1-0.7s-0.8,0.3-1,0.7c-0.1,0.2-0.3,0.4-0.6,0.4c-0.1,0-0.1,0-0.2,0
		c-0.1,0-0.2-0.1-0.4-0.1h-0.1C10.8,4.5,11,4.9,11,5.3v2h-0.5H8H7.5V7.2H7.2c-0.2,0-0.3,0-0.5-0.1c-0.3,0.6-0.9,1-1.6,1
		c-0.5,0-1-0.2-1.3-0.6C3.5,7.7,3.3,7.7,3.1,7.7c-1,0-1.8-0.8-1.8-1.8s0.8-1.8,1.8-1.8c0.2,0,0.3,0,0.5,0.1C3.9,3.8,4.4,3.5,5,3.5
		c0.2,0,0.3,0,0.5,0.1c0.3-0.6,0.9-1,1.6-1s1.3,0.4,1.6,1c0.2,0,0.3-0.1,0.5-0.1c0.3,0,0.5,0.1,0.8,0.2c0.2-0.1,0.5-0.2,0.8-0.2
		c0.2,0,0.3,0,0.5,0.1c0.3-0.6,0.9-1,1.6-1c0.7,0,1.3,0.4,1.6,1c0.2,0,0.3-0.1,0.5-0.1c1,0,1.8,0.8,1.8,1.8v2.3H17
		c0.4,0,0.7,0.3,0.7,0.7v1.4c0,0.8,0.1,1.7,0.4,2.5l1.2,3.9c0.1,0.1,0.1,0.2,0.1,0.3v0.5c0,0.3-0.2,0.5-0.5,0.5c0,0-0.3,0-0.8,0l0,0
		c-4.9,0-12.9,0-12.9,0c-0.3,0-0.5-0.2-0.5-0.5v-0.5c0-0.1,0-0.2,0.1-0.3l1.5-3.9c0.2-0.8,0.4-1.6,0.4-2.4V8.2
		C6.7,7.8,7,7.5,7.5,7.5L7.5,7.5"/>
	<path class="st1" d="M4.7,17.1c0.2,0.2,0.5,0.3,0.5,0.3h1.1h5c0.4,0,0.8-0.3,0.8-0.8v-4.7c0-0.1,0-0.1,0-0.2l-0.3-0.9
		c0-0.1,0-0.1,0-0.2v-2c0-0.6-0.5-1-1-1H7.3c-0.4,0-0.8,0.3-0.8,0.8l0,0c0,2-0.4,4.1-1.1,5.9L5.1,15C4.9,15.6,4.7,16.3,4.7,17.1
		L4.7,17.1z"/>
</g>
<g>
	<g>
		<path class="st2" d="M16.3,12.3c0-0.9,0.4-2.2,0.7-3.1c0.2-0.5-0.1-1.1-0.7-1.2C15.7,7.9,15,7.8,14,7.8c-0.9,0-1.7,0.1-2.3,0.2
			c-0.6,0.1-0.9,0.7-0.7,1.3c0.5,1.4,0.5,3.2,0.5,3.2c0,1.8-0.9,3.8-0.9,6.8h6.8C17.5,15.9,16.3,13.8,16.3,12.3z"/>
		<path class="st2" d="M1.6,19.3h6.8c0-3.4-1.2-5.5-1.2-7c0-0.9,0.4-2.2,0.7-3.1C8,8.7,7.7,8.1,7.2,8C6.6,7.9,5.9,7.8,5,7.8
			C4.1,7.8,3.3,7.9,2.7,8C2.2,8.2,1.9,8.8,2.1,9.3c0.5,1.4,0.5,3.2,0.5,3.2C2.5,14.2,1.6,16.2,1.6,19.3z"/>
		<path class="st2" d="M9.4,1.5c0-0.4-0.4-0.8-0.8-0.8C8.2,0.7,7.8,1,7.8,1.4C7.6,1.3,7.4,1.3,7.2,1.3C6.5,1.3,6,1.7,6,2.4
			C5.8,2.3,5.6,2.2,5.3,2.2c-0.7,0-1.2,0.5-1.2,1.2c0,0.1,0,0.2,0,0.3C4,3.6,3.9,3.6,3.7,3.6C2.9,3.6,2.3,4.2,2.3,5S3,6.5,3.8,6.5
			c0.2,0,0.3,0,0.5-0.1C4.4,6.8,4.9,7,5.4,7c0.8,0,1.5-0.7,1.5-1.5c0-0.2,0-0.4-0.1-0.5C7.5,5,8,4.5,8,3.8c0-0.1,0-0.3-0.1-0.4
			c0.3-0.2,0.5-0.6,0.5-1V2.3c0.1,0,0.1,0,0.2,0C9,2.3,9.4,2,9.4,1.5z"/>
		<path class="st2" d="M18.5,1.5c0-0.4-0.4-0.8-0.8-0.8S17,1,16.9,1.4c-0.2-0.1-0.4-0.2-0.6-0.2c-0.6,0-1.2,0.5-1.2,1.1
			c-0.2-0.1-0.4-0.2-0.7-0.2c-0.7,0-1.2,0.5-1.2,1.2c0,0.1,0,0.2,0,0.3c-0.1,0-0.3-0.1-0.4-0.1c-0.8,0-1.5,0.7-1.5,1.5
			s0.7,1.5,1.5,1.5c0.7,0,1.3-0.5,1.4-1.2c0.3,0.4,0.7,0.6,1.2,0.6c0.8,0,1.5-0.7,1.5-1.5c0-0.3-0.1-0.6-0.3-0.8
			c0.5-0.1,0.9-0.6,0.9-1.2V2.3c0.1,0,0.1,0,0.2,0C18.1,2.3,18.5,2,18.5,1.5z"/>
	</g>
</g>
<g id="Layer_2_copy" class="st0">
	<path class="st1" d="M17.4,17.4h-7.2c-0.6,0-0.9-0.4-0.8-1L11.1,8c0-0.2,0.3-0.3,0.6-0.3h4.1c0.3,0,0.6,0.2,0.6,0.3
		c0,0,1.6,7.9,1.7,8.4C18.3,16.9,17.9,17.4,17.4,17.4z"/>
	<path class="st1" d="M10.1,17.4H3c-0.6,0-0.9-0.4-0.8-1L3.8,8c0-0.2,0.3-0.3,0.6-0.3h4.1c0.3,0,0.6,0.2,0.6,0.3
		c0,0,1.6,7.9,1.7,8.4C11,16.9,10.7,17.4,10.1,17.4z"/>
</g>
</svg>
