<?xml version="1.0" encoding="utf-8"?>
<!-- Generator: Adobe Illustrator 23.0.4, SVG Export Plug-In . SVG Version: 6.00 Build 0)  -->
<svg version="1.1" id="Layer_1" xmlns="http://www.w3.org/2000/svg" xmlns:xlink="http://www.w3.org/1999/xlink" x="0px" y="0px"
	 viewBox="0 0 20 20" style="enable-background:new 0 0 20 20;" xml:space="preserve">
<style type="text/css">
	.st0{fill:#FFFFFF;}
</style>
<path class="st0" d="M17.5,9.3L10.2,2c-0.1-0.1-0.4-0.1-0.5,0L2.5,9.3C2.3,9.5,2.5,9.9,2.8,9.9h1.7v7.1c0,0.7,0.6,1.2,1.2,1.2h8.7
	c0.7,0,1.2-0.6,1.2-1.2V9.9h1.7C17.5,9.9,17.7,9.5,17.5,9.3z M12.3,11.9c0,0.3-0.2,0.5-0.5,0.5h-1.2v2.9c0,0.3-0.3,0.6-0.6,0.6
	s-0.6-0.3-0.6-0.6v-2.9H8.2c-0.3,0-0.5-0.2-0.5-0.5v-0.2c0-0.3,0.2-0.5,0.5-0.5h1.2V9.8c0-0.3,0.3-0.6,0.6-0.6s0.6,0.3,0.6,0.6v1.4
	h1.2c0.3,0,0.5,0.2,0.5,0.5V11.9z"/>
</svg>
