<?xml version="1.0" encoding="utf-8"?>
<!-- Generator: Adobe Illustrator 23.0.4, SVG Export Plug-In . SVG Version: 6.00 Build 0)  -->
<svg version="1.1" id="Layer_1" xmlns="http://www.w3.org/2000/svg" xmlns:xlink="http://www.w3.org/1999/xlink" x="0px" y="0px"
	 viewBox="0 0 20 20" style="enable-background:new 0 0 20 20;" xml:space="preserve">
<style type="text/css">
	.st0{fill:#FFFFFF;}
</style>
<g>
	<g>
		<path class="st0" d="M18.4,6.8c-0.2-0.1-0.4-0.1-0.6,0l-4.6,3.1V7.3c0-0.2-0.1-0.4-0.3-0.5c-0.2-0.1-0.4-0.1-0.6,0l-5.2,3.4
			L6.8,3.5h0.5c0.3,0,0.5-0.2,0.5-0.5V1.8c0-0.3-0.2-0.5-0.5-0.5H1.8c-0.3,0-0.5,0.2-0.5,0.5v1.1c0,0.3,0.2,0.5,0.5,0.5h0.5l-1,14.6
			c0,0.2,0,0.3,0.1,0.4c0.1,0.1,0.2,0.2,0.4,0.2h16.3c0.3,0,0.5-0.2,0.5-0.5V7.3C18.7,7.1,18.6,6.9,18.4,6.8z M11.1,14.3H8.9v-2.2
			h2.2V14.3z M16.5,14.3h-2.2v-2.2h2.2V14.3z"/>
	</g>
</g>
</svg>
