<?xml version="1.0" encoding="utf-8"?>
<!-- Generator: Adobe Illustrator 23.0.4, SVG Export Plug-In . SVG Version: 6.00 Build 0)  -->
<svg version="1.1" id="Layer_1" xmlns="http://www.w3.org/2000/svg" xmlns:xlink="http://www.w3.org/1999/xlink" x="0px" y="0px"
	 viewBox="0 0 50 50" style="enable-background:new 0 0 50 50;" xml:space="preserve">
<style type="text/css">
	.st0{fill:#FFFFFF;}
</style>
<g>
	<path class="st0" d="M37,36v-4c0-4.5-8-5.8-8-10c0-3,0.4-8,0.4-8h5c0,0-0.4,4-0.4,6c0,2,8.6,4.1,10,8l2,8H37z"/>
	<path class="st0" d="M20,14L3,36h11l11.4-22H20z M17.5,21l2-3.5h3l-2,3.5H17.5z"/>
</g>
<path class="st0" d="M32.9,23.5l1.4-9.5H29l-9,22h11l1.2-7.6C30.7,27,29,25.2,29,24v-2L32.9,23.5z M27.5,33h-3l1.2-4h3L27.5,33z"/>
</svg>
