<?xml version="1.0" encoding="utf-8"?>
<!-- Generator: Adobe Illustrator 23.0.4, SVG Export Plug-In . SVG Version: 6.00 Build 0)  -->
<svg version="1.1" id="Layer_1" xmlns="http://www.w3.org/2000/svg" xmlns:xlink="http://www.w3.org/1999/xlink" x="0px" y="0px"
	 viewBox="0 0 50 50" style="enable-background:new 0 0 50 50;" xml:space="preserve">
<style type="text/css">
	.st0{fill:#FFFFFF;}
</style>
<g>
	<path class="st0" d="M37.5,14H32l0.4,3h-1.6l-0.3-3h-5L26,36h7l-0.2-2h1.9l0.3,2h7L37.5,14z M28,33l-0.5-4h3l0.5,4H28z M31,18h1.6
		l0.4,3h-1.7L31,18z M31.4,22h1.7l0.4,3h-1.8L31.4,22z M31.9,26h1.8l0.4,3h-1.8L31.9,26z M32.7,33l-0.3-3h1.9l0.4,3H32.7z M34.1,20
		l-0.8-4h2.9l0.8,4H34.1z"/>
	<path class="st0" d="M19.2,17h-1.6l0.4-3h-6L8,36h7l0.3-2h1.9L17,36h7l0.5-22h-5L19.2,17z M14,33h-3l0.5-4h3L14,33z M17.3,33h-1.9
		l0.4-3h1.9L17.3,33z M17.8,29H16l0.4-3h1.8L17.8,29z M18.2,25h-1.8l0.4-3h1.7L18.2,25z M18.7,21H17l0.4-3H19L18.7,21z M20.6,16h2.9
		l-0.3,4h-2.9L20.6,16z"/>
</g>
</svg>
