<?xml version="1.0" encoding="utf-8"?>
<!-- Generator: Adobe Illustrator 23.0.4, SVG Export Plug-In . SVG Version: 6.00 Build 0)  -->
<svg version="1.1" id="Layer_1" xmlns="http://www.w3.org/2000/svg" xmlns:xlink="http://www.w3.org/1999/xlink" x="0px" y="0px"
	 viewBox="0 0 50 50" style="enable-background:new 0 0 50 50;" xml:space="preserve">
<style type="text/css">
	.st0{fill:#FFFFFF;}
</style>
<path class="st0" d="M32.5,14h-7l0.1,3h-1.1l0.1-3H17l-4,22h11l0-2H26l0,2h11L32.5,14z M21.1,20h-2.9l0.3-4h2.9L21.1,20z M24.4,18
	h1.2l0.1,3h-1.3L24.4,18z M24.3,22h1.4l0.1,3h-1.5L24.3,22z M24.2,26h1.6l0.1,3h-1.7L24.2,26z M24.1,33l0.1-3h1.8l0.1,3H24.1z
	 M29.5,29h3l0.5,4h-3L29.5,29z"/>
</svg>
