<?xml version="1.0" encoding="utf-8"?>
<!-- Generator: Adobe Illustrator 23.0.4, SVG Export Plug-In . SVG Version: 6.00 Build 0)  -->
<svg version="1.1" id="Layer_1" xmlns="http://www.w3.org/2000/svg" xmlns:xlink="http://www.w3.org/1999/xlink" x="0px" y="0px"
	 viewBox="0 0 50 50" style="enable-background:new 0 0 50 50;" xml:space="preserve">
<style type="text/css">
	.st0{fill:#FFFFFF;}
</style>
<path class="st0" d="M17.5,15l-2.9,6H13l-1,1v2h1.4L13,25v5v1l0,0c0,0,0.6,0.6,1,1h1h4l2,1h8l2-1h4h1l1-1l0,0v-1v-5l-0.4-1H38v-2
	l-1-1h-1.6l-2.9-6H17.5z M18.5,18h13l1.5,4l-1,1H18l-1-1L18.5,18z M16,26h3l1,2v1h-4l-1-1v-1L16,26z M31,26h3l1,1v1l-1,1h-4v-1
	L31,26z M14,33v2l1,1h3l1-1v-2H14z M31,33v2l1,1h3l1-1v-2H31z"/>
<path class="st0" d="M11,32.6v1.5L6,36H2L11,32.6z"/>
<path class="st0" d="M13,12l-4,1.5v17.9L2,34V21.6l3-1.1v-4l-1,0.4l-2,0.8v-1.1V7L13,12z"/>
<path class="st0" d="M45,9l-1,1v2l1,1h2l1-1v-2l-1-1H45z M44,14l-1,1l-5,5h2.5l2.5-2.5V22v7h1l1-1v-6h2.2l0.8,4h2h2l1-1v-1h-3.4
	L49,21v-6l-1-1H44z M39.5,25c-0.8,0-1.5,0.7-1.5,1.5s0.7,1.5,1.5,1.5s1.5-0.7,1.5-1.5S40.3,25,39.5,25z"/>
<path class="st0" d="M39,32.6v1.5l5,1.9h4L39,32.6z"/>
</svg>
