<?xml version="1.0" encoding="utf-8"?>
<!-- Generator: Adobe Illustrator 23.0.4, SVG Export Plug-In . SVG Version: 6.00 Build 0)  -->
<svg version="1.1" id="Layer_1" xmlns="http://www.w3.org/2000/svg" xmlns:xlink="http://www.w3.org/1999/xlink" x="0px" y="0px"
	 viewBox="0 0 50 50" style="enable-background:new 0 0 50 50;" xml:space="preserve">
<style type="text/css">
	.st0{fill:#FFFFFF;}
</style>
<path class="st0" d="M25.9,23.5l1.4-9.5H22l-1.2,3h-1.7l-0.4,1h1.7l-1.2,3h-1.8l-0.4,1h1.8l-1.2,3h-1.8l-0.4,1h1.8l-1.2,3H14l-0.4,1
	h1.9l-1.2,3h-1.9l-0.4,1h2L13,36h11l1.2-7.6C23.7,27,22,25.2,22,24v-2L25.9,23.5z M20.5,33h-3l1.2-4h3L20.5,33z"/>
<path class="st0" d="M30,36v-4c0-4.5-8-5.8-8-10c0-3,0.4-8,0.4-8h5c0,0-0.4,4-0.4,6c0,2,8.6,4.1,10,8l2,8H30z"/>
</svg>
