<?xml version="1.0" encoding="utf-8"?>
<!-- Generator: Adobe Illustrator 23.0.4, SVG Export Plug-In . SVG Version: 6.00 Build 0)  -->
<svg version="1.1" id="Layer_1" xmlns="http://www.w3.org/2000/svg" xmlns:xlink="http://www.w3.org/1999/xlink" x="0px" y="0px"
	 viewBox="0 0 50 50" style="enable-background:new 0 0 50 50;" xml:space="preserve">
<style type="text/css">
	.st0{fill:#FFFFFF;}
</style>
<g>
	<path class="st0" d="M31.9,23.5l1.4-9.5H28l-1.2,3h-1.7l1.3-3H21L6,36h11l0.8-2h2L19,36h11l1.2-7.6C29.7,27,28,25.2,28,24v-2
		L31.9,23.5z M26.4,18l-1.2,3h-1.8l1.3-3H26.4z M24.7,22l-1.2,3h-1.8l1.2-3H24.7z M20.5,17.5h3l-2,3.5h-3L20.5,17.5z M20.2,33h-1.9
		l1.3-3h1.9L20.2,33z M21.9,29H20l1.3-3h1.8L21.9,29z M26.5,33h-3l1.2-4h3L26.5,33z"/>
	<path class="st0" d="M36,36v-4c0-4.5-8-5.8-8-10c0-3,0.4-8,0.4-8h5c0,0-0.4,4-0.4,6c0,2,8.6,4.1,10,8l2,8H36z"/>
</g>
</svg>
