<?xml version="1.0" encoding="utf-8"?>
<!-- Generator: Adobe Illustrator 23.0.4, SVG Export Plug-In . SVG Version: 6.00 Build 0)  -->
<svg version="1.1" id="Layer_1" xmlns="http://www.w3.org/2000/svg" xmlns:xlink="http://www.w3.org/1999/xlink" x="0px" y="0px"
	 viewBox="0 0 50 50" style="enable-background:new 0 0 50 50;" xml:space="preserve">
<style type="text/css">
	.st0{fill:#FFFFFF;}
</style>
<path class="st0" d="M17.5,15l-2.9,6H13l-1,1v2h1.4L13,25v5v1l0,0c0,0,0.6,0.6,1,1h1h4l2,1h8l2-1h4h1l1-1l0,0v-1v-5l-0.4-1H38v-2
	l-1-1h-1.6l-2.9-6H17.5z M18.5,18h13l1.5,4l-1,1H18l-1-1L18.5,18z M16,26h3l1,2v1h-4l-1-1v-1L16,26z M31,26h3l1,1v1l-1,1h-4v-1
	L31,26z M14,33v2l1,1h3l1-1v-2H14z M31,33v2l1,1h3l1-1v-2H31z"/>
<path class="st0" d="M39,32.6v1.5l5,1.9h4L39,32.6z"/>
<path class="st0" d="M11,32.6v1.5L6,36H2L11,32.6z"/>
</svg>
