<?xml version="1.0" encoding="utf-8"?>
<!-- Generator: Adobe Illustrator 23.0.4, SVG Export Plug-In . SVG Version: 6.00 Build 0)  -->
<svg version="1.1" id="Layer_1" xmlns="http://www.w3.org/2000/svg" xmlns:xlink="http://www.w3.org/1999/xlink" x="0px" y="0px"
	 viewBox="0 0 50 50" style="enable-background:new 0 0 50 50;" xml:space="preserve">
<style type="text/css">
	.st0{fill:#FFFFFF;}
</style>
<g>
	<path class="st0" d="M13.5,36H22l1-22h-7L13.5,36z M18.6,16h2.9l-0.3,4h-2.9L18.6,16z"/>
	<path class="st0" d="M8,14L3,36h8.5l3-22H8z M9.5,33h-3L7,29h3L9.5,33z"/>
	<path class="st0" d="M27,14l1,22h7.5L33,14H27z M30,33l-0.5-4h3l0.5,4H30z"/>
	<path class="st0" d="M41.5,14h-7l3,22H47L41.5,14z M37.8,20L37,16h2.9l0.8,4H37.8z"/>
</g>
</svg>
