<?xml version="1.0" encoding="utf-8"?>
<!-- Generator: Adobe Illustrator 23.0.4, SVG Export Plug-In . SVG Version: 6.00 Build 0)  -->
<svg version="1.1" id="Layer_1" xmlns="http://www.w3.org/2000/svg" xmlns:xlink="http://www.w3.org/1999/xlink" x="0px" y="0px"
	 viewBox="0 0 50 50" style="enable-background:new 0 0 50 50;" xml:space="preserve">
<style type="text/css">
	.st0{fill:#FFFFFF;}
</style>
<g>
	<path class="st0" d="M10,14L5,36h7.5l3-22H10z M11.5,33h-3L9,29h3L11.5,33z"/>
	<path class="st0" d="M14.5,36H24l0.5-22H17L14.5,36z M18.6,16h2.9l-0.3,4h-2.9L18.6,16z"/>
	<path class="st0" d="M39.5,14H34l3,22h8L39.5,14z M36.8,20L36,16h2.9l0.8,4H36.8z"/>
	<path class="st0" d="M25.5,14L26,36h9l-2.5-22H25.5z M29,33l-0.5-4h3l0.5,4H29z"/>
</g>
</svg>
