<?xml version="1.0" encoding="utf-8"?>
<!-- Generator: Adobe Illustrator 23.0.4, SVG Export Plug-In . SVG Version: 6.00 Build 0)  -->
<svg version="1.1" id="Layer_1" xmlns="http://www.w3.org/2000/svg" xmlns:xlink="http://www.w3.org/1999/xlink" x="0px" y="0px"
	 viewBox="0 0 50 50" style="enable-background:new 0 0 50 50;" xml:space="preserve">
<style type="text/css">
	.st0{opacity:0.496;fill:#FFFFFF;enable-background:new    ;}
</style>
<path id="highway-steps-stroke3" class="st0" d="M22,14v2l-1,2v2l-1,2v2l-1,2v2l-1,2v2l-1,2v2h8h8v-2l-1-2v-2l-1-2v-2l-1-2v-2l-1-2
	v-2l-1-2v-2h-3H22z"/>
<path id="highway-steps-stroke2" d="M18,32v-2h14v2H18z M33,36v-2H17v2H33z M31,28v-2H19v2H31z M30,24v-2H20v2H30z M29,20v-2h-8v2
	H29z M28,16v-2h-6v2H28z"/>
</svg>
