<?xml version="1.0" encoding="utf-8"?>
<!-- Generator: Adobe Illustrator 23.0.4, SVG Export Plug-In . SVG Version: 6.00 Build 0)  -->
<svg version="1.1" id="Layer_1" xmlns="http://www.w3.org/2000/svg" xmlns:xlink="http://www.w3.org/1999/xlink" x="0px" y="0px"
	 viewBox="0 0 50 50" style="enable-background:new 0 0 50 50;" xml:space="preserve">
<style type="text/css">
	.st0{fill:#FFFFFF;}
	.st1{fill:#F9F9F9;}
</style>
<g>
	<path class="st0" d="M43,20c0,2.8-1.1,5-2.5,5S38,22.8,38,20s1.1-5,2.5-5S43,17.2,43,20z"/>
	<g>
		<path class="st0" d="M14.5,20c0-2.8,1.5-5,2.5-5h-5.5C10.1,15,9,17.2,9,20s1.1,5,2.5,5H17C16,25,14.5,22.8,14.5,20z"/>
		<path class="st0" d="M29.5,20c0-2.8,1.5-5,2.5-5h-6v10h6C31,25,29.5,22.8,29.5,20z"/>
		<path class="st0" d="M38,20c0-2.8,1.1-5,2.5-5H34c-1.4,0-3,2.2-3,5s1.6,5,3,5h6.5C39.1,25,38,22.8,38,20z"/>
		<path class="st0" d="M22,15h-3c-1.4,0-3,2.2-3,5s1.6,5,3,5h3V15z"/>
	</g>
	<path class="st1" d="M23,12v14l-2,10h2l1.6-8h4.8l1.6,8h2l-2-10h-1h-5V12H23z M29,12v2h2v-2H29z M16,20 M14.5,20 M31,20 M29.5,20
		 M40.5,15c-1.4,0-2.5,2.2-2.5,5s1.1,5,2.5,5s2.5-2.2,2.5-5S41.9,15,40.5,15z"/>
</g>
</svg>
