<?xml version="1.0" encoding="utf-8"?>
<!-- Generator: Adobe Illustrator 23.0.4, SVG Export Plug-In . SVG Version: 6.00 Build 0)  -->
<svg version="1.1" id="Layer_1" xmlns="http://www.w3.org/2000/svg" xmlns:xlink="http://www.w3.org/1999/xlink" x="0px" y="0px"
	 viewBox="0 0 50 50" style="enable-background:new 0 0 50 50;" xml:space="preserve">
<style type="text/css">
	.st0{fill:#FFFFFF;}
</style>
<path class="st0" d="M15,10v1h2v-1H15z M19,10v1h2v-1H19z M29,10v1h2v-1H29z M33,10v1h2v-1H33z M15.3,15c-0.7,3.5-3,5.5-5.3,5.5H9v1
	h1c1,0,2.1-0.3,3-0.9v0.9h1c2.9,0,5.6-2.5,6.3-6.5h-1c-0.7,3.5-3,5.5-5.3,5.5h-0.9c1.6-1.1,2.8-3,3.2-5.5H15.3z M29.7,15
	c0.7,4,3.4,6.5,6.3,6.5h1v-0.9c0.9,0.6,2,0.9,3,0.9h1v-1h-1c-2.3,0-4.6-2-5.3-5.5h-1c0.4,2.5,1.6,4.4,3.2,5.5H36
	c-2.3,0-4.6-2-5.3-5.5H29.7z"/>
<path class="st0" d="M23,10v2h-9v2h9v22h4V14h9v-2h-9v-2H23z"/>
</svg>
