<?xml version="1.0" encoding="utf-8"?>
<!-- Generator: Adobe Illustrator 23.0.4, SVG Export Plug-In . SVG Version: 6.00 Build 0)  -->
<svg version="1.1" id="Layer_1" xmlns="http://www.w3.org/2000/svg" xmlns:xlink="http://www.w3.org/1999/xlink" x="0px" y="0px"
	 viewBox="0 0 50 50" style="enable-background:new 0 0 50 50;" xml:space="preserve">
<style type="text/css">
	.st0{fill:#FFFFFF;}
</style>
<g id="railway-disused-base">
	<path class="st0" d="M12,35l1.5,1l1-1l0.7-3h-2.5L12,35z"/>
	<path class="st0" d="M35.3,32l0.7,3l1,1l1.5-1l-0.7-3H35.3z"/>
	<path class="st0" d="M16.2,28l0.5-2h-2.5l-0.5,2h-2.4c-0.6,0-0.9,0.5-1,1L10,30c-0.1,0.5,0.4,1,1,1h11.8c-0.3-1-0.8-2.1-1.5-3H16.2
		z M14.5,30c-0.3,0-0.5-0.2-0.5-0.5s0.2-0.5,0.5-0.5c0.3,0,0.5,0.2,0.5,0.5S14.8,30,14.5,30z"/>
	<path class="st0" d="M12,25h26c0.6,0,1.1-0.5,1-1l-0.2-1c-0.1-0.5-0.4-1-1-1h-2.3l-0.5-2h-2.5l0.5,2H17.6l0.5-2h-2.5l-0.5,2h-2.8
		c-0.6,0-0.9,0.5-1,1L11,24C10.9,24.5,11.4,25,12,25z M34.5,23c0.3,0,0.5,0.2,0.5,0.5S34.8,24,34.5,24S34,23.8,34,23.5
		S34.2,23,34.5,23z M15.5,23c0.3,0,0.5,0.2,0.5,0.5S15.8,24,15.5,24c-0.3,0-0.5-0.2-0.5-0.5S15.2,23,15.5,23z"/>
	<path class="st0" d="M13,19h24c0.6,0,1.1-0.5,1-1l-0.2-1c-0.1-0.5-0.4-1-1-1H34l-0.5-2L32,13l-1,1l0.5,2H19l0.5-2l-1-1L17,14
		l-0.5,2h-3.3c-0.6,0-0.9,0.5-1,1L12,18C11.9,18.5,12.4,19,13,19z M33.5,17c0.3,0,0.5,0.2,0.5,0.5S33.8,18,33.5,18S33,17.8,33,17.5
		S33.2,17,33.5,17z M16.5,17c0.3,0,0.5,0.2,0.5,0.5S16.8,18,16.5,18c-0.3,0-0.5-0.2-0.5-0.5S16.2,17,16.5,17z"/>
	<path class="st0" d="M40,30l-0.2-1c-0.1-0.5-0.4-1-1-1h-1.9l-0.5-2h-2.5l0.5,2h-4.2l-0.3,0.3c-1.1,1-1.7,1.9-2,2.7H39
		C39.6,31,40.1,30.5,40,30z M35.5,30c-0.3,0-0.5-0.2-0.5-0.5s0.2-0.5,0.5-0.5s0.5,0.2,0.5,0.5S35.8,30,35.5,30z"/>
</g>
<g id="railway-disused-weed">
	<path class="st0" d="M19.4,31.6c3,3.1,2.4,4.4,2.4,4.4s0.2,0,1.7,0C23.6,32.9,21.2,32.2,19.4,31.6z"/>
	<path class="st0" d="M26,36c0-2-0.3-3.6-0.7-4.9c-0.5-1.3-1.2-2.3-1.8-3c-1.3-1.4-2.5-1.8-2.5-1.8c0.6,0.5,1.1,1.1,1.5,1.8
		c0.6,1,1,2,1.3,3c0.7,2.6,0.6,4.9,0.6,4.9S24.9,36,26,36z"/>
	<path class="st0" d="M28.6,28c-1.8,0.8-2.4,2.8-2.4,2.8l0,0.2l0.4,1.6c0,0,0-0.7,0.4-1.6c0.3-0.8,0.9-1.9,2.1-3
		c0.1-0.1,0.2-0.2,0.2-0.2C29,27.8,28.8,27.9,28.6,28z"/>
	<path class="st0" d="M27,36l1.6,0c0,0-0.2-2.4,2-4.3C28.9,32.2,27.2,33.8,27,36z"/>
</g>
</svg>
