<?xml version="1.0" encoding="utf-8"?>
<!-- Generator: Adobe Illustrator 23.0.4, SVG Export Plug-In . SVG Version: 6.00 Build 0)  -->
<svg version="1.1" id="Layer_1" xmlns="http://www.w3.org/2000/svg" xmlns:xlink="http://www.w3.org/1999/xlink" x="0px" y="0px"
	 viewBox="0 0 50 50" style="enable-background:new 0 0 50 50;" xml:space="preserve">
<style type="text/css">
	.st0{fill:#FFFFFF;}
</style>
<g id="railway-abandoned-base">
	<path class="st0" d="M31,23.7l-1.4,0.1l0.7,1.2h7.4c0.6,0,1.1-0.5,1-1l-0.2-1c-0.1-0.5-0.4-1-1-1h-2.3l-0.5-2h-2.5l0.5,2h-2.8
		l0.2,0.2L31,23.7z M34.2,23c0.3,0,0.5,0.2,0.5,0.5S34.5,24,34.2,24s-0.5-0.2-0.5-0.5S34,23,34.2,23z"/>
	<path class="st0" d="M28.8,19h7.9c0.6,0,1.1-0.5,1-1l-0.2-1c-0.1-0.5-0.4-1-1-1h-2.8l-0.5-2l-1.5-1l-1,1l0.5,2h-4l1.3,2.4L28.8,19z
		 M33.2,17c0.3,0,0.5,0.2,0.5,0.5S33.5,18,33.2,18s-0.5-0.2-0.5-0.5S33,17,33.2,17z"/>
	<path class="st0" d="M22.7,16h-3.9l0.5-2l-1-1l-1.5,1l-0.5,2H13c-0.6,0-0.9,0.5-1,1l-0.2,1c-0.1,0.5,0.4,1,1,1H21l0.3-0.6L22.7,16z
		 M16.2,18c-0.3,0-0.5-0.2-0.5-0.5S16,17,16.2,17s0.5,0.2,0.5,0.5S16.5,18,16.2,18z"/>
	<path class="st0" d="M15.9,28l0.5-2h-2.5l-0.5,2H11c-0.6,0-0.9,0.5-1,1l-0.2,1c-0.1,0.5,0.4,1,1,1h6.9l1.6-3H15.9z M14.2,30
		c-0.3,0-0.5-0.2-0.5-0.5S14,29,14.2,29s0.5,0.2,0.5,0.5S14.5,30,14.2,30z"/>
	<path class="st0" d="M35,32l0.7,3l1,1l1.5-1l-0.7-3H35z"/>
	<path class="st0" d="M18.8,23.6l1-1.4L20,22h-2.7l0.5-2h-2.5l-0.5,2H12c-0.6,0-0.9,0.5-1,1l-0.2,1c-0.1,0.5,0.4,1,1,1h7.8l0.7-1.2
		L18.8,23.6z M15.2,24c-0.3,0-0.5-0.2-0.5-0.5S15,23,15.2,23s0.5,0.2,0.5,0.5S15.5,24,15.2,24z"/>
	<path class="st0" d="M39.7,30l-0.2-1c-0.1-0.5-0.4-1-1-1h-1.9l-0.5-2h-2.5l0.5,2h-3.4l1.6,3h6.5C39.3,31,39.9,30.5,39.7,30z
		 M35.2,30c-0.3,0-0.5-0.2-0.5-0.5S35,29,35.2,29s0.5,0.2,0.5,0.5S35.5,30,35.2,30z"/>
	<path class="st0" d="M11.8,35l1.5,1l1-1l0.7-3h-2.5L11.8,35z"/>
</g>
<path id="railway-abandoned-tree" class="st0" d="M25.8,31.7l5.6,0L31.1,31l-1.6-3l-0.8-1.5l1.3-0.1L29.2,25l-1.3-2.1l1.3-0.1
	L28.6,22l-2.2-3l0,0l1.2-0.1L26.1,16L25,14l0,0.1v-0.2L23.8,16l-1.6,2.8l1.2,0.1l0,0l-2.2,3l-0.6,0.8l1.3,0.1L20.7,25l-0.8,1.3
	l1.3,0.1L20.4,28l-1.6,3l-0.3,0.6l2.3,0l0,0l3.5,0v0.5v0.5V36h1.6l0-3.4l0-0.5L25.8,31.7z"/>
</svg>
