<?xml version="1.0" encoding="utf-8"?>
<!-- Generator: Adobe Illustrator 23.0.4, SVG Export Plug-In . SVG Version: 6.00 Build 0)  -->
<svg version="1.1" id="Layer_1" xmlns="http://www.w3.org/2000/svg" xmlns:xlink="http://www.w3.org/1999/xlink" x="0px" y="0px"
	 viewBox="0 0 50 50" style="enable-background:new 0 0 50 50;" xml:space="preserve">
<style type="text/css">
	.st0{fill:#FFFFFF;}
</style>
<path class="st0" d="M18.5,13L17,14l-0.5,2h-3.3c-0.6,0-0.9,0.5-1,1L12,18c-0.1,0.5,0.4,1,1,1h24c0.6,0,1.1-0.5,1-1l-0.2-1
	c-0.1-0.5-0.4-1-1-1H34l-0.5-2L32,13l-1,1l0.5,2H19l0.5-2L18.5,13z M16.5,17c0.3,0,0.5,0.2,0.5,0.5S16.8,18,16.5,18S16,17.8,16,17.5
	S16.2,17,16.5,17z M33.5,17c0.3,0,0.5,0.2,0.5,0.5S33.8,18,33.5,18S33,17.8,33,17.5S33.2,17,33.5,17z M15.6,20l-0.5,2h-2.8
	c-0.6,0-0.9,0.5-1,1L11,24c-0.1,0.5,0.4,1,1,1h26c0.6,0,1.1-0.5,1-1l-0.2-1c-0.1-0.5-0.4-1-1-1h-2.3l-0.5-2h-2.5l0.5,2H17.6l0.5-2
	H15.6z M15.5,23c0.3,0,0.5,0.2,0.5,0.5S15.8,24,15.5,24S15,23.8,15,23.5S15.2,23,15.5,23z M34.5,23c0.3,0,0.5,0.2,0.5,0.5
	S34.8,24,34.5,24S34,23.8,34,23.5S34.2,23,34.5,23z M14.2,26l-0.5,2h-2.4c-0.6,0-0.9,0.5-1,1L10,30c-0.1,0.5,0.4,1,1,1h28
	c0.6,0,1.1-0.5,1-1l-0.2-1c-0.1-0.5-0.4-1-1-1h-1.9l-0.5-2h-2.5l0.5,2H16.2l0.5-2H14.2z M14.5,29c0.3,0,0.5,0.2,0.5,0.5
	S14.8,30,14.5,30S14,29.8,14,29.5S14.2,29,14.5,29z M35.5,29c0.3,0,0.5,0.2,0.5,0.5S35.8,30,35.5,30S35,29.8,35,29.5
	S35.2,29,35.5,29z M12.7,32L12,35l1.5,1l1-1l0.7-3H12.7z M35.3,32l0.7,3l1,1l1.5-1l-0.7-3H35.3z"/>
</svg>
