<?xml version="1.0" encoding="utf-8"?>
<!-- Generator: Adobe Illustrator 23.0.4, SVG Export Plug-In . SVG Version: 6.00 Build 0)  -->
<svg version="1.1" id="Layer_1" xmlns="http://www.w3.org/2000/svg" xmlns:xlink="http://www.w3.org/1999/xlink" x="0px" y="0px"
	 viewBox="0 0 60 60" style="enable-background:new 0 0 60 60;" xml:space="preserve">
<style type="text/css">
	.st0{fill:#FFFFFF;}
</style>
<path class="st0" d="M20,17l-10,9l10,9v-6h5.5L20,23.5V17z M26.5,23L38,34.5V31l-2-4l-2-2l-4-2H26.5z M32,35.5v5.3
	c1.4-0.3,2.6-0.9,3.8-1.6L32,35.5z"/>
<path class="st0" d="M30,15c-3.4,0-6.5,1.1-9,3v5.1l16.4,16.4l-0.5,0.3C34.9,41.2,32.6,42,30,42c-4.5,0-8.4-2.5-10.4-6.1l-4.4-4
	C16.1,39.3,22.4,45,30,45c8.3,0,15-6.7,15-15S38.3,15,30,15z M30,18c6.6,0,12,5.4,12,12c0,2.6-0.8,4.9-2.2,6.9l-0.3,0.5L22.6,20.5
	l0.5-0.3C25.1,18.8,27.4,18,30,18z"/>
</svg>
