<?xml version="1.0" encoding="utf-8"?>
<!-- Generator: Adobe Illustrator 23.0.4, SVG Export Plug-In . SVG Version: 6.00 Build 0)  -->
<svg version="1.1" id="Layer_1" xmlns="http://www.w3.org/2000/svg" xmlns:xlink="http://www.w3.org/1999/xlink" x="0px" y="0px"
	 viewBox="0 0 60 60" style="enable-background:new 0 0 60 60;" xml:space="preserve">
<style type="text/css">
	.st0{fill:#FFFFFF;}
</style>
<path class="st0" d="M30,15l-9,10h7.5l4.5,4.5V25h6L30,15z M27,30.5v10.1c1,0.3,2,0.4,3,0.4c1.1,0,2-0.2,3-0.5v-4L27,30.5z"/>
<path class="st0" d="M28.5,15.1C20.9,15.8,15,22.2,15,30c0,8.3,6.7,15,15,15s15-6.7,15-15c0-7.8-6-14.2-13.6-14.9l3.7,4.1
	c4.1,1.9,6.9,6,6.9,10.8c0,2.6-0.8,4.9-2.2,6.9l-0.3,0.5l-0.4-0.4L28.1,26H27h-3.1l13,13l0.4,0.4l-0.5,0.3C34.9,41.2,32.6,42,30,42
	c-6.6,0-12-5.4-12-12c0-2.6,0.8-5,2.2-6.9l0.3-0.5l0.4,0.4l0.2,0.2l2-2.2l-0.1-0.1l-0.4-0.4l0.5-0.3c0.6-0.4,1.2-0.7,1.8-1l3.7-4.1
	C28.6,15.1,28.5,15.1,28.5,15.1z"/>
</svg>
