<?xml version="1.0" encoding="utf-8"?>
<!-- Generator: Adobe Illustrator 23.0.4, SVG Export Plug-In . SVG Version: 6.00 Build 0)  -->
<svg version="1.1" id="Layer_1" xmlns="http://www.w3.org/2000/svg" xmlns:xlink="http://www.w3.org/1999/xlink" x="0px" y="0px"
	 viewBox="0 0 60 60" style="enable-background:new 0 0 60 60;" xml:space="preserve">
<style type="text/css">
	.st0{fill:#FFFFFF;}
</style>
<path class="st0" d="M46,30c0-8.8-7.2-16-16-16s-16,7.2-16,16s7.2,16,16,16S46,38.8,46,30z M43,31.5l-6.9,10.4l-7.6-10.4h4.9v-5
	l-1.9-1.8h-3.6L25.5,27v12c-2.5,0-5.2-2-5.2-5c0-3-0.1-6.1,0-8.1c0.2-3.9,6.2-6.5,6.2-6.5s3.1-0.5,5.8,0c3.1,0.6,6.2,4.5,6.2,6.4
	c0,3.1,0,5.6,0,5.6H43z"/>
</svg>
