<?xml version="1.0" encoding="utf-8"?>
<!-- Generator: Adobe Illustrator 23.0.4, SVG Export Plug-In . SVG Version: 6.00 Build 0)  -->
<svg version="1.1" id="Layer_1" xmlns="http://www.w3.org/2000/svg" xmlns:xlink="http://www.w3.org/1999/xlink" x="0px" y="0px"
	 viewBox="0 0 60 60" style="enable-background:new 0 0 60 60;" xml:space="preserve">
<style type="text/css">
	.st0{fill:#FFFFFF;}
</style>
<path class="st0" d="M30,14.5c-8.6,0-15.5,6.9-15.5,15.5S21.4,45.5,30,45.5S45.5,38.6,45.5,30S38.6,14.5,30,14.5z M30,18.5
	c6.4,0,11.5,5.1,11.5,11.5c0,2.5-0.8,4.7-2.1,6.6l-16-16C25.3,19.3,27.5,18.5,30,18.5z M20.6,23.4l16,16c-1.9,1.3-4.1,2.1-6.6,2.1
	c-6.4,0-11.5-5.1-11.5-11.5C18.5,27.5,19.3,25.3,20.6,23.4z"/>
</svg>
