<?xml version="1.0" encoding="utf-8"?>
<!-- Generator: Adobe Illustrator 23.0.4, SVG Export Plug-In . SVG Version: 6.00 Build 0)  -->
<svg version="1.1" id="Layer_1" xmlns="http://www.w3.org/2000/svg" xmlns:xlink="http://www.w3.org/1999/xlink" x="0px" y="0px"
	 viewBox="0 0 60 60" style="enable-background:new 0 0 60 60;" xml:space="preserve">
<style type="text/css">
	.st0{fill:#FFFFFF;}
</style>
<path class="st0" d="M39,17v6H29l-1.7,0.8l5.2,5.2H39v6l10-9L39,17z M23.2,26.8L23,27l-2,3v6.3c1.4,2,3.5,3.6,6,4.3V31l0.2-0.2
	L23.2,26.8z"/>
<path class="st0" d="M30,15c-8.3,0-15,6.7-15,15s6.7,15,15,15c8,0,14.5-6.2,15-14.1l-3.8,3.4c-0.4,0.9-0.8,1.7-1.3,2.5l-0.3,0.5
	L23.1,20.9l-0.4-0.4l0.5-0.3c1.9-1.4,4.3-2.2,6.9-2.2c3.1,0,5.9,1.2,8,3.1v-3.8C35.7,15.9,33,15,30,15z M20.5,22.6l0.4,0.4l16,16
	l0.4,0.4l-0.5,0.3C34.9,41.2,32.6,42,30,42c-6.6,0-12-5.4-12-12c0-2.6,0.8-5,2.2-6.9L20.5,22.6z"/>
</svg>
