<?xml version="1.0" encoding="utf-8"?>
<!-- Generator: Adobe Illustrator 23.0.4, SVG Export Plug-In . SVG Version: 6.00 Build 0)  -->
<svg version="1.1" id="Layer_1" xmlns="http://www.w3.org/2000/svg" xmlns:xlink="http://www.w3.org/1999/xlink" x="0px" y="0px"
	 viewBox="0 0 60 60" style="enable-background:new 0 0 60 60;" xml:space="preserve">
<style type="text/css">
	.st0{fill:#FFFFFF;}
</style>
<path class="st0" d="M29,22l-2.3,1.2l4.8,4.8H35l2,2v6h-6l9,10l9-10h-6v-6l-1.3-2.6L41,26l-2-2l-4-2H29z M22.8,26.3L21,30v6.3
	c1.3,1.9,3.3,3.4,5.5,4.2L27,40v-9.5L22.8,26.3z"/>
<path class="st0" d="M30,15c-8.3,0-15,6.7-15,15s6.7,15,15,15c2.3,0,4.5-0.5,6.4-1.5l-2.1-2.4C33,41.7,31.5,42,30,42
	c-6.6,0-12-5.4-12-12c0-2.6,0.8-5,2.2-6.9l0.3-0.5l0.4,0.4l12,12H36v-1.1L23.1,20.9l-0.4-0.4l0.5-0.3c1.9-1.4,4.3-2.2,6.9-2.2
	c4.4,0,8.2,2.4,10.3,5.9l1.5,1.5l2.2,4.3V35h0.1c0.6-1.6,0.9-3.2,0.9-5C45,21.7,38.3,15,30,15z"/>
</svg>
