<?xml version="1.0" encoding="utf-8"?>
<!-- Generator: Adobe Illustrator 23.0.4, SVG Export Plug-In . SVG Version: 6.00 Build 0)  -->
<svg version="1.1" id="Layer_1" xmlns="http://www.w3.org/2000/svg" xmlns:xlink="http://www.w3.org/1999/xlink" x="0px" y="0px"
	 viewBox="0 0 50 50" style="enable-background:new 0 0 50 50;" xml:space="preserve">
<style type="text/css">
	.st0{fill:#FFFFFF;}
	.st1{opacity:0.5;fill:#FFFFFF;enable-background:new    ;}
</style>
<path id="waterway-stream-stroke2" class="st0" d="M17.8,36c0,0-0.5-1.8-0.3-2.8c0.2-1,1.7-2.8,1.7-2.8s1.4-1.7,1.7-2.8
	c0.2-0.9-0.3-2.8-0.3-2.8s-0.5-1.8-0.3-2.8c0.2-1,1.7-2.8,1.7-2.8s1.4-1.7,1.7-2.8C23.5,15.8,23,14,23,14h4.5c0,0,1.4,1.7,1.7,2.8
	c0.2,0.9-0.3,2.8-0.3,2.8s-0.5,1.8-0.3,2.8c0.2,1,1.7,2.8,1.7,2.8s1.4,1.7,1.7,2.8c0.2,0.9-0.3,2.8-0.3,2.8s-0.5,1.8-0.3,2.8
	c0.2,1,1.7,2.8,1.7,2.8H17.8z"/>
<path id="waterway-stream-stroke3" class="st1" d="M19,27.8c-0.2,0.8-0.8,1.3-1.4,1.2c-0.5-0.1-0.8-0.9-0.6-1.7
	c0.2-0.8,0.8-1.3,1.4-1.2C18.9,26.2,19.2,27,19,27.8z M20.8,17.8c0.6-1,0.4-2.1-0.3-2.5c-0.7-0.4-1.7,0-2.3,1s-0.4,2.1,0.3,2.5
	S20.2,18.7,20.8,17.8z M30.4,21.7c-0.2-0.8,0-1.6,0.6-1.7c0.5-0.1,1.1,0.4,1.4,1.2c0.2,0.8,0,1.6-0.6,1.7
	C31.2,23,30.6,22.5,30.4,21.7z M33.3,32.8c-0.6-1-0.4-2.1,0.3-2.5c0.7-0.4,1.7,0,2.3,1c0.6,1,0.4,2.1-0.3,2.5
	C34.9,34.1,33.9,33.7,33.3,32.8z"/>
</svg>
