<?xml version="1.0" encoding="utf-8"?>
<!-- Generator: Adobe Illustrator 23.0.4, SVG Export Plug-In . SVG Version: 6.00 Build 0)  -->
<svg version="1.1" id="Layer_1" xmlns="http://www.w3.org/2000/svg" xmlns:xlink="http://www.w3.org/1999/xlink" x="0px" y="0px"
	 viewBox="0 0 50 50" style="enable-background:new 0 0 50 50;" xml:space="preserve">
<style type="text/css">
	.st0{fill:#FFFFFF;}
</style>
<path id="waterway-canal-stroke2" class="st0" d="M17,14c0,0,0.5,1.8,0.3,2.8c-0.2,1-1.7,2.8-1.7,2.8s-1.4,1.7-1.7,2.8
	c-0.2,0.9,0.3,2.8,0.3,2.8s0.5,1.8,0.3,2.8c-0.2,1-1.7,2.8-1.7,2.8s-1.4,1.7-1.7,2.8c-0.2,0.9,0.3,2.8,0.3,2.8h27
	c0,0-1.4-1.7-1.7-2.8c-0.2-0.9,0.3-2.8,0.3-2.8s0.5-1.8,0.3-2.8c-0.2-1-1.7-2.8-1.7-2.8s-1.4-1.7-1.7-2.8c-0.2-0.9,0.3-2.8,0.3-2.8
	s0.5-1.8,0.3-2.8c-0.2-1-1.7-2.8-1.7-2.8H17z M23,16h4l2,2l2,12l-4,2h-4l-4-2l2-12L23,16z M27.2,24l0.8,4h-6l0.8-4H27.2z M26.6,21
	l0.4,2h-4l0.4-2H26.6z M26,18l0.4,2h-2.8l0.4-2H26z"/>
</svg>
